<?xml version="1.0" encoding="us-ascii" standalone="no"?><svg xmlns="http://www.w3.org/2000/svg" xmlns:xlink="http://www.w3.org/1999/xlink" contentStyleType="text/css" height="584px" preserveAspectRatio="none" style="width:1124px;height:584px;background:#1B1B1B;" version="1.1" viewBox="0 0 1124 584" width="1124px" zoomAndPan="magnify"><defs/><g><rect fill="#1B1B1B" height="584" style="stroke:none;stroke-width:1.0;" width="1124" x="0" y="0"/><!--cluster Sistema de Riego Inteligente--><g id="cluster_Sistema de Riego Inteligente"><rect fill="#232323" height="569" rx="2.5" ry="2.5" style="stroke:#FFC857;stroke-width:1.0;" width="971" x="147" y="9.532"/><text fill="#FFD98C" font-family="Verdana" font-size="24" font-weight="bold" lengthAdjust="spacing" textLength="341" x="462" y="37.1879">Sistema de Riego Inteligente</text></g><g id="elem_CU10"><ellipse cx="278.105" cy="283.4372" fill="#232323" rx="115.105" ry="30.4052" style="stroke:#FFC857;stroke-width:0.5;"/><text fill="#ECECEC" font-family="Verdana" font-size="14" font-weight="bold" lengthAdjust="spacing" textLength="144" x="203.105" y="278.6362">CU10: Autenticarse y</text><text fill="#ECECEC" font-family="Verdana" font-size="14" font-weight="bold" lengthAdjust="spacing" textLength="114" x="218.105" y="297.7042">gestionar sesi&#243;n</text></g><g id="elem_CU1"><ellipse cx="653.92" cy="91.4668" fill="#232323" rx="122.42" ry="30.4348" style="stroke:#FFC857;stroke-width:0.5;"/><text fill="#ECECEC" font-family="Verdana" font-size="14" font-weight="bold" lengthAdjust="spacing" textLength="154" x="573.92" y="86.6658">CU1: Configurar zonas</text><text fill="#ECECEC" font-family="Verdana" font-size="14" font-weight="bold" lengthAdjust="spacing" textLength="68" x="616.92" y="105.7337">de cultivo</text></g><g id="elem_CU2"><ellipse cx="653.879" cy="540.6078" fill="#232323" rx="98.379" ry="22.0758" style="stroke:#FFC857;stroke-width:0.5;"/><text fill="#ECECEC" font-family="Verdana" font-size="14" font-weight="bold" lengthAdjust="spacing" textLength="151" x="575.379" y="545.3407">CU2: Programar riego</text></g><g id="elem_CU3"><ellipse cx="1010.1204" cy="455.4925" fill="#232323" rx="92.1204" ry="43.4605" style="stroke:#FFC857;stroke-width:0.5;"/><text fill="#ECECEC" font-family="Verdana" font-size="14" font-weight="bold" lengthAdjust="spacing" textLength="114" x="951.6292" y="440.5335">CU3: Monitorear</text><text fill="#ECECEC" font-family="Verdana" font-size="14" font-weight="bold" lengthAdjust="spacing" textLength="62" x="977.6292" y="459.6014">variables</text><text fill="#ECECEC" font-family="Verdana" font-size="14" font-weight="bold" lengthAdjust="spacing" textLength="50" x="983.6292" y="478.6693">en vivo</text></g><g id="elem_CU5"><ellipse cx="1009.9741" cy="259.4981" fill="#232323" rx="89.9741" ry="29.9661" style="stroke:#FFC857;stroke-width:0.5;"/><text fill="#ECECEC" font-family="Verdana" font-size="14" font-weight="bold" lengthAdjust="spacing" textLength="92" x="963.9741" y="253.3961">CU5: Analizar</text><text fill="#ECECEC" font-family="Verdana" font-size="14" font-weight="bold" lengthAdjust="spacing" textLength="111" x="954.4741" y="272.464">datos hist&#243;ricos</text></g><g id="elem_CU7"><ellipse cx="653.8848" cy="416.7572" fill="#232323" rx="84.3848" ry="30.2252" style="stroke:#FFC857;stroke-width:0.5;"/><text fill="#ECECEC" font-family="Verdana" font-size="14" font-weight="bold" lengthAdjust="spacing" textLength="102" x="599.8848" y="411.9562">CU7: Visualizar</text><text fill="#ECECEC" font-family="Verdana" font-size="14" font-weight="bold" lengthAdjust="spacing" textLength="82" x="609.8848" y="431.0241">sugerencias</text></g><g id="elem_CU8"><ellipse cx="278.105" cy="379.4372" fill="#232323" rx="115.105" ry="30.4052" style="stroke:#FFC857;stroke-width:0.5;"/><text fill="#ECECEC" font-family="Verdana" font-size="14" font-weight="bold" lengthAdjust="spacing" textLength="144" x="203.105" y="374.6362">CU8: Control remoto</text><text fill="#ECECEC" font-family="Verdana" font-size="14" font-weight="bold" lengthAdjust="spacing" textLength="79" x="235.605" y="393.7042">del sistema</text></g><g id="elem_CU4"><ellipse cx="654.0305" cy="224.4981" fill="#232323" rx="105.5305" ry="29.9661" style="stroke:#FFC857;stroke-width:0.5;"/><text fill="#ECECEC" font-family="Verdana" font-size="14" font-weight="bold" lengthAdjust="spacing" textLength="78" x="615.0305" y="218.3961">CU4: Emitir</text><text fill="#ECECEC" font-family="Verdana" font-size="14" font-weight="bold" lengthAdjust="spacing" textLength="133" x="587.5305" y="237.464">alertas inteligentes</text></g><g id="elem_CU6"><ellipse cx="277.9386" cy="527.3733" fill="#232323" rx="101.9386" ry="30.3413" style="stroke:#FFC857;stroke-width:0.5;"/><text fill="#ECECEC" font-family="Verdana" font-size="14" font-weight="bold" lengthAdjust="spacing" textLength="126" x="211.9386" y="522.5723">CU6: Ajustar riego</text><text fill="#ECECEC" font-family="Verdana" font-size="14" font-weight="bold" lengthAdjust="spacing" textLength="124" x="212.9386" y="541.6402">autom&#225;ticamente</text></g><g id="elem_CU9"><ellipse cx="653.9765" cy="320.5252" fill="#232323" rx="139.9765" ry="30.4932" style="stroke:#FFC857;stroke-width:0.5;"/><text fill="#ECECEC" font-family="Verdana" font-size="14" font-weight="bold" lengthAdjust="spacing" textLength="178" x="561.9765" y="315.7242">CU9: Generar informes de</text><text fill="#ECECEC" font-family="Verdana" font-size="14" font-weight="bold" lengthAdjust="spacing" textLength="97" x="604.4765" y="334.7921">cumplimiento</text></g><!--entity Admin--><g id="elem_Admin"><ellipse cx="53" cy="436.532" fill="#232323" rx="8" ry="8" style="stroke:#FFC857;stroke-width:0.5;"/><path d="M53,444.532 L53,471.532 M40,452.532 L66,452.532 M53,471.532 L40,486.532 M53,471.532 L66,486.532 " fill="none" style="stroke:#FFC857;stroke-width:0.5;"/><text fill="#FFD98C" font-family="Verdana" font-size="24" font-weight="bold" lengthAdjust="spacing" textLength="79" x="13.5" y="513.6879">Admin</text></g><!--entity Usuario--><g id="elem_Usuario"><ellipse cx="53" cy="287.532" fill="#232323" rx="8" ry="8" style="stroke:#FFC857;stroke-width:0.5;"/><path d="M53,295.532 L53,322.532 M40,303.532 L66,303.532 M53,322.532 L40,337.532 M53,322.532 L66,337.532 " fill="none" style="stroke:#FFC857;stroke-width:0.5;"/><text fill="#FFD98C" font-family="Verdana" font-size="24" font-weight="bold" lengthAdjust="spacing" textLength="94" x="6" y="364.6879">Usuario</text></g><!--link Usuario to CU8--><g id="link_Usuario_CU8"><path d="M100.21,336.722 C126.87,343.182 155.3887,350.0793 186.7187,357.6693 " fill="none" id="Usuario-to-CU8" style="stroke:#FFC857;stroke-width:2.0;"/><polygon fill="#FFC857" points="192.55,359.082,184.7448,353.0754,187.6906,357.9047,182.8612,360.8505,192.55,359.082" style="stroke:#FFC857;stroke-width:2.0;"/></g><!--link Usuario to CU10--><g id="link_Usuario_CU10"><path d="M100.21,316.832 C124.32,312.292 148.8238,307.6732 177.5838,302.2532 " fill="none" id="Usuario-to-CU10" style="stroke:#FFC857;stroke-width:2.0;"/><polygon fill="#FFC857" points="183.48,301.142,173.8949,298.8779,178.5665,302.068,175.3765,306.7396,183.48,301.142" style="stroke:#FFC857;stroke-width:2.0;"/></g><!--link CU8 to CU1--><g id="link_CU8_CU1"><path d="M359.67,357.852 C372.39,351.242 384.22,342.662 393,331.532 C443.77,267.162 367.51,209.872 423,149.532 C451.02,119.072 486.5844,104.6966 526.6244,97.1266 " fill="none" id="CU8-to-CU1" style="stroke:#FFC857;stroke-width:2.0;"/><polygon fill="#FFC857" points="532.52,96.012,522.9336,93.7535,527.607,96.9408,524.4197,101.6143,532.52,96.012" style="stroke:#FFC857;stroke-width:2.0;"/></g><!--link CU8 to CU2--><g id="link_CU8_CU2"><path d="M309.25,409.012 C336.72,434.142 379.5,469.302 423,489.532 C424.87,490.402 510.3396,509.2451 577.3296,523.9551 " fill="none" id="CU8-to-CU2" style="stroke:#FFC857;stroke-width:2.0;"/><polygon fill="#FFC857" points="583.19,525.242,575.2573,519.4048,578.3064,524.1696,573.5415,527.2186,583.19,525.242" style="stroke:#FFC857;stroke-width:2.0;"/></g><!--link CU8 to CU3--><g id="link_CU8_CU3"><path d="M335.92,406.122 C382.61,426.392 451.03,452.612 514,463.532 C654.79,487.942 815.513,477.9 915.083,467.42 " fill="none" id="CU8-to-CU3" style="stroke:#FFC857;stroke-width:2.0;"/><polygon fill="#FFC857" points="921.05,466.792,911.6807,463.756,916.0775,467.3154,912.5181,471.7121,921.05,466.792" style="stroke:#FFC857;stroke-width:2.0;"/></g><!--link CU8 to CU5--><g id="link_CU8_CU5"><path d="M350.8,355.892 C365.53,349.272 380.38,341.192 393,331.532 C462.4,278.412 435.46,214.862 514,176.532 C665.73,102.492 865.9751,185.3554 956.9851,231.3554 " fill="none" id="CU8-to-CU5" style="stroke:#FFC857;stroke-width:2.0;"/><polygon fill="#FFC857" points="962.34,234.062,956.1121,226.4322,957.8776,231.8065,952.5033,233.5721,962.34,234.062" style="stroke:#FFC857;stroke-width:2.0;"/></g><!--link CU8 to CU7--><g id="link_CU8_CU7"><path d="M385.92,390.112 C445.29,395.982 511.9591,402.5818 566.4891,407.9718 " fill="none" id="CU8-to-CU7" style="stroke:#FFC857;stroke-width:2.0;"/><polygon fill="#FFC857" points="572.46,408.562,563.8971,403.6961,567.4842,408.0702,563.1102,411.6573,572.46,408.562" style="stroke:#FFC857;stroke-width:2.0;"/></g><!--link CU8 to CU9--><g id="link_CU8_CU9"><path d="M377.26,364.032 C427.26,356.142 482.3433,347.4571 534.2533,339.2671 " fill="none" id="CU8-to-CU9" style="stroke:#FFC857;stroke-width:2.0;"/><polygon fill="#FFC857" points="540.18,338.332,530.6666,335.7835,535.2411,339.1112,531.9133,343.6857,540.18,338.332" style="stroke:#FFC857;stroke-width:2.0;"/></g><!--reverse link Usuario to Admin--><g id="link_Usuario_Admin"><path d="M53,378.102 C53,395.842 53,410.042 53,427.792 " fill="none" id="Usuario-backto-Admin" style="stroke:#FFB857;stroke-width:1.0;stroke-dasharray:7.0,7.0;"/><polygon fill="#FFB857" points="53,372.102,49,381.102,53,377.102,57,381.102,53,372.102" style="stroke:#FFB857;stroke-width:1.0;"/><text fill="#FFB857" font-family="Verdana" font-size="14" font-style="italic" lengthAdjust="spacing" textLength="59" x="10" y="405.4979">&#171;include&#187;</text></g><!--link CU6 to CU2--><g id="link_CU6_CU2"><path d="M379.72,531.032 C434.67,532.942 496.3636,535.0831 550.6236,536.9731 " fill="none" id="CU6-to-CU2" style="stroke:#FFB857;stroke-width:1.0;stroke-dasharray:7.0,7.0;"/><polygon fill="#FFB857" points="556.62,537.182,547.7647,532.8711,551.623,537.0079,547.4862,540.8663,556.62,537.182" style="stroke:#FFB857;stroke-width:1.0;"/><text fill="#FFB857" font-family="Verdana" font-size="14" font-style="italic" lengthAdjust="spacing" textLength="59" x="424" y="527.4979">&#171;include&#187;</text></g><!--link CU9 to CU5--><g id="link_CU9_CU5"><path d="M764.58,301.652 C817.99,292.442 875.107,282.5999 923.787,274.2199 " fill="none" id="CU9-to-CU5" style="stroke:#FFB857;stroke-width:1.0;stroke-dasharray:7.0,7.0;"/><polygon fill="#FFB857" points="929.7,273.202,920.1519,270.7868,924.7725,274.0502,921.5091,278.6708,929.7,273.202" style="stroke:#FFB857;stroke-width:1.0;"/><text fill="#FFB857" font-family="Verdana" font-size="14" font-style="italic" lengthAdjust="spacing" textLength="59" x="826.5" y="276.4979">&#171;include&#187;</text></g><!--link CU7 to CU5--><g id="link_CU7_CU5"><path d="M717.96,396.822 C742.03,388.762 769.55,378.892 794,368.532 C853.72,343.222 914.6699,311.4701 957.6299,288.0901 " fill="none" id="CU7-to-CU5" style="stroke:#FFB857;stroke-width:1.0;stroke-dasharray:7.0,7.0;"/><polygon fill="#FFB857" points="962.9,285.222,953.0828,286.0108,958.5083,287.6121,956.9069,293.0376,962.9,285.222" style="stroke:#FFB857;stroke-width:1.0;"/><text fill="#FFB857" font-family="Verdana" font-size="14" font-style="italic" lengthAdjust="spacing" textLength="59" x="826.5" y="322.4979">&#171;include&#187;</text></g><!--link CU4 to CU5--><g id="link_CU4_CU5"><path d="M754.08,234.332 C807.36,239.592 866.449,245.4425 917.499,250.4825 " fill="none" id="CU4-to-CU5" style="stroke:#FFB857;stroke-width:1.0;stroke-dasharray:7.0,7.0;"/><polygon fill="#FFB857" points="923.47,251.072,914.9065,246.2071,918.4942,250.5807,914.1205,254.1684,923.47,251.072" style="stroke:#FFB857;stroke-width:1.0;"/><text fill="#FFB857" font-family="Verdana" font-size="14" font-style="italic" lengthAdjust="spacing" textLength="59" x="826.5" y="237.4979">&#171;include&#187;</text></g><!--link CU7 to CU3--><g id="link_CU7_CU3"><path d="M734.89,425.332 C789.95,431.402 857.1961,438.805 914.1161,445.075 " fill="none" id="CU7-to-CU3" style="stroke:#FFA857;stroke-width:1.0;stroke-dasharray:7.0,7.0;"/><polygon fill="#FFA857" points="920.08,445.732,911.5721,440.7706,915.1101,445.1845,910.6961,448.7225,920.08,445.732" style="stroke:#FFA857;stroke-width:1.0;"/><text fill="#FFA857" font-family="Verdana" font-size="14" font-style="italic" lengthAdjust="spacing" textLength="62" x="825" y="431.4979">&#171;extends&#187;</text></g><!--SRC=[bPJBRXCn58RtVeh3RBAXeRateoXIgIhK1H8gAgj8oCoSJ0xuKjcUq1JnC3n37o4lnl5SI9aGeMQJcVd_p-Tck-S9fCisjBLWBE03-O2l8RCQJG1R1WWRyg38e7X59bDbZk33Jk6RNBfldpKPqbBrxqkjX52uPi22es8J82U7MI1hX91Pi0wIovpz2KWFrLFx-SwNqf6jXEPP215XQGg5a7oCMMa97FkMiB1mOm8gAZX7JE270FwL7ZFfsNnrDpXFuR8Ch58c7N_RhKo1FgOY7NZqj7-gquZU8pg5AslML9IEtO_C-9NXo5cf0hUfvRhOC8KFpXPEQgPSpB9n3aNNEahXlJN4jQDqAxFbWkKNXHm63MmFCKPTSC9r6QdeCMAv3DO3JoVidnnbrZVKv2ZUB8LFn7rjG5yMwD1a95jarYKkgXu4PnKur3ROs045lfv3Grr4gakEKxZM58ZZI8Kki9CEmse3ZhlOb2lxMlhGzexfCbYz_nL7gEivL-JqgBfv2k_GO1mMcRLr6Zrlb9NXWUbxHPgORZiwh-dUCpxE07QWRKxhk5qOvBARJEEW1-Ad43suHIKpta6yUhLj-VyCU0thXMWsBPoTBMDVOB6GpjdlRpd2SjbH1-STkLSVXbOUT6GH5soqZdHGXYULqKbbSbAPdLJctUJ-RWntsc7Tb7XMIs-ZeRaslAZhxCTRehziJtgxuatjMYuXXMIneFOruV1JwFVhCl_l5Z7BsZuvTlzZyTcBtECNkBbsVE1hAFVFmep-r71TQMq9ZRFYVWC0]--></g></svg>