<?xml version="1.0" encoding="us-ascii" standalone="no"?><svg xmlns="http://www.w3.org/2000/svg" xmlns:xlink="http://www.w3.org/1999/xlink" contentStyleType="text/css" height="1056px" preserveAspectRatio="none" style="width:738px;height:1056px;" version="1.1" viewBox="0 0 738 1056" width="738px" zoomAndPan="magnify"><defs/><g><rect fill="none" height="42.6879" id="_title" style="stroke:#00F5E9;stroke-width:1.0;" width="650.75" x="36.625" y="15"/><text fill="#85A6FF" font-family="sans-serif" font-size="24" font-weight="bold" lengthAdjust="spacing" textLength="640.75" x="41.625" y="45.6559">&#128202; Base de Datos No Relacional para Sistema de Riego</text><!--cluster ? Configuraci?n & Arquitectura--><g id="cluster_&#128193; Configuraci&#243;n &amp; Arquitectura"><path d="M8,83.2199 L369,83.2199 A3,3 0 0 1 371,85.2199 L378,121.9078 L574,121.9078 A2,2 0 0 1 576,123.9078 L576,749.2199 A2,2 0 0 1 574,751.2199 L8,751.2199 A2,2 0 0 1 6,749.2199 L6,85.2199 A2,2 0 0 1 8,83.2199 " fill="#1A1A2E" style="stroke:#5D8BF4;stroke-width:1.5;"/><line style="stroke:#5D8BF4;stroke-width:1.5;" x1="6" x2="378" y1="121.9078" y2="121.9078"/><text fill="#85A6FF" font-family="sans-serif" font-size="24" font-weight="bold" lengthAdjust="spacing" textLength="359" x="10" y="110.8758">&#128193; Configuraci&#243;n &amp; Arquitectura</text></g><!--cluster ? Datos Hist?ricos IoT--><g id="cluster_&#128200; Datos Hist&#243;ricos IoT"><path d="M300,775.2199 L571.75,775.2199 A3,3 0 0 1 573.75,777.2199 L580.75,813.9078 L729,813.9078 A2,2 0 0 1 731,815.9078 L731,1047.2199 A2,2 0 0 1 729,1049.2199 L300,1049.2199 A2,2 0 0 1 298,1047.2199 L298,777.2199 A2,2 0 0 1 300,775.2199 " fill="#1A1A2E" style="stroke:#5D8BF4;stroke-width:1.5;"/><line style="stroke:#5D8BF4;stroke-width:1.5;" x1="298" x2="580.75" y1="813.9078" y2="813.9078"/><text fill="#85A6FF" font-family="sans-serif" font-size="24" font-weight="bold" lengthAdjust="spacing" textLength="269.75" x="302" y="802.8758">&#128200; Datos Hist&#243;ricos IoT</text></g><!--class Usuario--><g id="elem_Usuario"><rect codeLine="10" fill="none" height="171.9421" id="Usuario" rx="2.5" ry="2.5" style="stroke:#5D8BF4;stroke-width:0.5;" width="174" x="386" y="134.2199"/><ellipse cx="445.25" cy="150.2199" fill="none" rx="11" ry="11" style="stroke:#5D8BF4;stroke-width:1.0;"/><path d="M449.3594,156.2199 L441.6406,156.2199 L441.6406,143.8293 L449.3594,143.8293 L449.3594,145.9855 L444.0938,145.9855 L444.0938,148.6574 L448.8594,148.6574 L448.8594,150.8136 L444.0938,150.8136 L444.0938,154.0636 L449.3594,154.0636 L449.3594,156.2199 Z " fill="#F0F4FF"/><text fill="#F0F4FF" font-family="sans-serif" font-size="13" lengthAdjust="spacing" textLength="47" x="465.75" y="155.2639">Usuario</text><line style="stroke:#5D8BF4;stroke-width:0.5;" x1="387" x2="559" y1="166.2199" y2="166.2199"/><ellipse cx="397" cy="180.5729" fill="none" rx="3" ry="3" style="stroke:#5D8BF4;stroke-width:1.0;"/><text fill="#F0F4FF" font-family="sans-serif" font-size="13" lengthAdjust="spacing" textLength="77" x="406" y="184.1169">_id : ObjectId</text><ellipse cx="397" cy="198.2789" fill="none" rx="3" ry="3" style="stroke:#5D8BF4;stroke-width:1.0;"/><text fill="#F0F4FF" font-family="sans-serif" font-size="13" lengthAdjust="spacing" textLength="143" x="406" y="201.8229">nombre_usuario : string</text><ellipse cx="397" cy="215.9849" fill="none" rx="3" ry="3" style="stroke:#5D8BF4;stroke-width:1.0;"/><text fill="#F0F4FF" font-family="sans-serif" font-size="13" lengthAdjust="spacing" textLength="92" x="406" y="219.5289">nombre : string</text><ellipse cx="397" cy="233.6909" fill="none" rx="3" ry="3" style="stroke:#5D8BF4;stroke-width:1.0;"/><text fill="#F0F4FF" font-family="sans-serif" font-size="13" lengthAdjust="spacing" textLength="76" x="406" y="237.2349">email : string</text><ellipse cx="397" cy="251.397" fill="none" rx="3" ry="3" style="stroke:#5D8BF4;stroke-width:1.0;"/><text fill="#F0F4FF" font-family="sans-serif" font-size="13" lengthAdjust="spacing" textLength="137" x="406" y="254.941">password_hash : string</text><ellipse cx="397" cy="269.103" fill="none" rx="3" ry="3" style="stroke:#5D8BF4;stroke-width:1.0;"/><text fill="#F0F4FF" font-family="sans-serif" font-size="13" lengthAdjust="spacing" textLength="60" x="406" y="272.647">rol : string</text><ellipse cx="397" cy="286.809" fill="none" rx="3" ry="3" style="stroke:#5D8BF4;stroke-width:1.0;"/><text fill="#F0F4FF" font-family="sans-serif" font-size="13" lengthAdjust="spacing" textLength="148" x="406" y="290.353">fecha_registro : datetime</text><line style="stroke:#5D8BF4;stroke-width:0.5;" x1="387" x2="559" y1="298.162" y2="298.162"/></g><!--class ZonaRiego--><g id="elem_ZonaRiego"><rect codeLine="20" fill="none" height="118.8241" id="ZonaRiego" rx="2.5" ry="2.5" style="stroke:#5D8BF4;stroke-width:0.5;" width="177" x="173.5" y="160.7199"/><ellipse cx="225.75" cy="176.7199" fill="none" rx="11" ry="11" style="stroke:#5D8BF4;stroke-width:1.0;"/><path d="M229.8594,182.7199 L222.1406,182.7199 L222.1406,170.3293 L229.8594,170.3293 L229.8594,172.4855 L224.5938,172.4855 L224.5938,175.1574 L229.3594,175.1574 L229.3594,177.3136 L224.5938,177.3136 L224.5938,180.5636 L229.8594,180.5636 L229.8594,182.7199 Z " fill="#F0F4FF"/><text fill="#F0F4FF" font-family="sans-serif" font-size="13" lengthAdjust="spacing" textLength="64" x="246.25" y="181.7639">ZonaRiego</text><line style="stroke:#5D8BF4;stroke-width:0.5;" x1="174.5" x2="349.5" y1="192.7199" y2="192.7199"/><ellipse cx="184.5" cy="207.0729" fill="none" rx="3" ry="3" style="stroke:#5D8BF4;stroke-width:1.0;"/><text fill="#F0F4FF" font-family="sans-serif" font-size="13" lengthAdjust="spacing" textLength="77" x="193.5" y="210.6169">_id : ObjectId</text><ellipse cx="184.5" cy="224.7789" fill="none" rx="3" ry="3" style="stroke:#5D8BF4;stroke-width:1.0;"/><text fill="#F0F4FF" font-family="sans-serif" font-size="13" lengthAdjust="spacing" textLength="92" x="193.5" y="228.3229">nombre : string</text><ellipse cx="184.5" cy="242.4849" fill="none" rx="3" ry="3" style="stroke:#5D8BF4;stroke-width:1.0;"/><text fill="#F0F4FF" font-family="sans-serif" font-size="13" lengthAdjust="spacing" textLength="89" x="193.5" y="246.0289">ubicacion : Doc</text><ellipse cx="184.5" cy="260.1909" fill="none" rx="3" ry="3" style="stroke:#5D8BF4;stroke-width:1.0;"/><text fill="#F0F4FF" font-family="sans-serif" font-size="13" lengthAdjust="spacing" textLength="151" x="193.5" y="263.7349">fecha_creacion : datetime</text><line style="stroke:#5D8BF4;stroke-width:0.5;" x1="174.5" x2="349.5" y1="271.544" y2="271.544"/></g><!--class Nodo--><g id="elem_Nodo"><rect codeLine="30" fill="none" height="136.5301" id="Nodo" rx="2.5" ry="2.5" style="stroke:#5D8BF4;stroke-width:0.5;" width="169" x="223.5" y="366.2199"/><ellipse cx="286.75" cy="382.2199" fill="none" rx="11" ry="11" style="stroke:#5D8BF4;stroke-width:1.0;"/><path d="M290.8594,388.2199 L283.1406,388.2199 L283.1406,375.8293 L290.8594,375.8293 L290.8594,377.9855 L285.5938,377.9855 L285.5938,380.6574 L290.3594,380.6574 L290.3594,382.8136 L285.5938,382.8136 L285.5938,386.0636 L290.8594,386.0636 L290.8594,388.2199 Z " fill="#F0F4FF"/><text fill="#F0F4FF" font-family="sans-serif" font-size="13" lengthAdjust="spacing" textLength="34" x="307.25" y="387.2639">Nodo</text><line style="stroke:#5D8BF4;stroke-width:0.5;" x1="224.5" x2="391.5" y1="398.2199" y2="398.2199"/><ellipse cx="234.5" cy="412.5729" fill="none" rx="3" ry="3" style="stroke:#5D8BF4;stroke-width:1.0;"/><text fill="#F0F4FF" font-family="sans-serif" font-size="13" lengthAdjust="spacing" textLength="77" x="243.5" y="416.1169">_id : ObjectId</text><ellipse cx="234.5" cy="430.2789" fill="none" rx="3" ry="3" style="stroke:#5D8BF4;stroke-width:1.0;"/><text fill="#F0F4FF" font-family="sans-serif" font-size="13" lengthAdjust="spacing" textLength="106" x="243.5" y="433.8229">zona_id : ObjectId</text><ellipse cx="234.5" cy="447.9849" fill="none" rx="3" ry="3" style="stroke:#5D8BF4;stroke-width:1.0;"/><text fill="#F0F4FF" font-family="sans-serif" font-size="13" lengthAdjust="spacing" textLength="92" x="243.5" y="451.5289">nombre : string</text><ellipse cx="234.5" cy="465.6909" fill="none" rx="3" ry="3" style="stroke:#5D8BF4;stroke-width:1.0;"/><text fill="#F0F4FF" font-family="sans-serif" font-size="13" lengthAdjust="spacing" textLength="112" x="243.5" y="469.2349">descripcion : string</text><ellipse cx="234.5" cy="483.397" fill="none" rx="3" ry="3" style="stroke:#5D8BF4;stroke-width:1.0;"/><text fill="#F0F4FF" font-family="sans-serif" font-size="13" lengthAdjust="spacing" textLength="143" x="243.5" y="486.941">coordenadas : GeoPoint</text><line style="stroke:#5D8BF4;stroke-width:0.5;" x1="224.5" x2="391.5" y1="494.75" y2="494.75"/></g><!--class Sensor--><g id="elem_Sensor"><rect codeLine="38" fill="none" height="136.5301" id="Sensor" rx="2.5" ry="2.5" style="stroke:#5D8BF4;stroke-width:0.5;" width="138" x="249" y="580.7199"/><ellipse cx="293.25" cy="596.7199" fill="none" rx="11" ry="11" style="stroke:#5D8BF4;stroke-width:1.0;"/><path d="M297.3594,602.7199 L289.6406,602.7199 L289.6406,590.3293 L297.3594,590.3293 L297.3594,592.4855 L292.0938,592.4855 L292.0938,595.1574 L296.8594,595.1574 L296.8594,597.3136 L292.0938,597.3136 L292.0938,600.5636 L297.3594,600.5636 L297.3594,602.7199 Z " fill="#F0F4FF"/><text fill="#F0F4FF" font-family="sans-serif" font-size="13" lengthAdjust="spacing" textLength="41" x="313.75" y="601.7639">Sensor</text><line style="stroke:#5D8BF4;stroke-width:0.5;" x1="250" x2="386" y1="612.7199" y2="612.7199"/><ellipse cx="260" cy="627.0729" fill="none" rx="3" ry="3" style="stroke:#5D8BF4;stroke-width:1.0;"/><text fill="#F0F4FF" font-family="sans-serif" font-size="13" lengthAdjust="spacing" textLength="77" x="269" y="630.6169">_id : ObjectId</text><ellipse cx="260" cy="644.7789" fill="none" rx="3" ry="3" style="stroke:#5D8BF4;stroke-width:1.0;"/><text fill="#F0F4FF" font-family="sans-serif" font-size="13" lengthAdjust="spacing" textLength="109" x="269" y="648.3229">nodo_id : ObjectId</text><ellipse cx="260" cy="662.4849" fill="none" rx="3" ry="3" style="stroke:#5D8BF4;stroke-width:1.0;"/><text fill="#F0F4FF" font-family="sans-serif" font-size="13" lengthAdjust="spacing" textLength="68" x="269" y="666.0289">tipo : string</text><ellipse cx="260" cy="680.1909" fill="none" rx="3" ry="3" style="stroke:#5D8BF4;stroke-width:1.0;"/><text fill="#F0F4FF" font-family="sans-serif" font-size="13" lengthAdjust="spacing" textLength="90" x="269" y="683.7349">modelo : string</text><ellipse cx="260" cy="697.897" fill="none" rx="3" ry="3" style="stroke:#5D8BF4;stroke-width:1.0;"/><text fill="#F0F4FF" font-family="sans-serif" font-size="13" lengthAdjust="spacing" textLength="112" x="269" y="701.441">descripcion : string</text><line style="stroke:#5D8BF4;stroke-width:0.5;" x1="250" x2="386" y1="709.25" y2="709.25"/></g><!--class Regador--><g id="elem_Regador"><rect codeLine="46" fill="none" height="118.8241" id="Regador" rx="2.5" ry="2.5" style="stroke:#5D8BF4;stroke-width:0.5;" width="138" x="422" y="589.7199"/><ellipse cx="461.75" cy="605.7199" fill="none" rx="11" ry="11" style="stroke:#5D8BF4;stroke-width:1.0;"/><path d="M465.8594,611.7199 L458.1406,611.7199 L458.1406,599.3293 L465.8594,599.3293 L465.8594,601.4855 L460.5938,601.4855 L460.5938,604.1574 L465.3594,604.1574 L465.3594,606.3136 L460.5938,606.3136 L460.5938,609.5636 L465.8594,609.5636 L465.8594,611.7199 Z " fill="#F0F4FF"/><text fill="#F0F4FF" font-family="sans-serif" font-size="13" lengthAdjust="spacing" textLength="51" x="481.25" y="610.7639">Regador</text><line style="stroke:#5D8BF4;stroke-width:0.5;" x1="423" x2="559" y1="621.7199" y2="621.7199"/><ellipse cx="433" cy="636.0729" fill="none" rx="3" ry="3" style="stroke:#5D8BF4;stroke-width:1.0;"/><text fill="#F0F4FF" font-family="sans-serif" font-size="13" lengthAdjust="spacing" textLength="77" x="442" y="639.6169">_id : ObjectId</text><ellipse cx="433" cy="653.7789" fill="none" rx="3" ry="3" style="stroke:#5D8BF4;stroke-width:1.0;"/><text fill="#F0F4FF" font-family="sans-serif" font-size="13" lengthAdjust="spacing" textLength="109" x="442" y="657.3229">nodo_id : ObjectId</text><ellipse cx="433" cy="671.4849" fill="none" rx="3" ry="3" style="stroke:#5D8BF4;stroke-width:1.0;"/><text fill="#F0F4FF" font-family="sans-serif" font-size="13" lengthAdjust="spacing" textLength="90" x="442" y="675.0289">modelo : string</text><ellipse cx="433" cy="689.1909" fill="none" rx="3" ry="3" style="stroke:#5D8BF4;stroke-width:1.0;"/><text fill="#F0F4FF" font-family="sans-serif" font-size="13" lengthAdjust="spacing" textLength="112" x="442" y="692.7349">descripcion : string</text><line style="stroke:#5D8BF4;stroke-width:0.5;" x1="423" x2="559" y1="700.544" y2="700.544"/></g><!--class ConfiguracionRiego--><g id="elem_ConfiguracionRiego"><rect codeLine="53" fill="none" height="101.118" id="ConfiguracionRiego" rx="2.5" ry="2.5" style="stroke:#5D8BF4;stroke-width:0.5;" width="151" x="37.5" y="384.2199"/><ellipse cx="52.95" cy="400.2199" fill="none" rx="11" ry="11" style="stroke:#5D8BF4;stroke-width:1.0;"/><path d="M57.0594,406.2199 L49.3406,406.2199 L49.3406,393.8293 L57.0594,393.8293 L57.0594,395.9855 L51.7938,395.9855 L51.7938,398.6574 L56.5594,398.6574 L56.5594,400.8136 L51.7938,400.8136 L51.7938,404.0636 L57.0594,404.0636 L57.0594,406.2199 Z " fill="#F0F4FF"/><text fill="#F0F4FF" font-family="sans-serif" font-size="13" lengthAdjust="spacing" textLength="118" x="67.05" y="405.2639">ConfiguracionRiego</text><line style="stroke:#5D8BF4;stroke-width:0.5;" x1="38.5" x2="187.5" y1="416.2199" y2="416.2199"/><ellipse cx="48.5" cy="430.5729" fill="none" rx="3" ry="3" style="stroke:#5D8BF4;stroke-width:1.0;"/><text fill="#F0F4FF" font-family="sans-serif" font-size="13" lengthAdjust="spacing" textLength="77" x="57.5" y="434.1169">_id : ObjectId</text><ellipse cx="48.5" cy="448.2789" fill="none" rx="3" ry="3" style="stroke:#5D8BF4;stroke-width:1.0;"/><text fill="#F0F4FF" font-family="sans-serif" font-size="13" lengthAdjust="spacing" textLength="106" x="57.5" y="451.8229">zona_id : ObjectId</text><ellipse cx="48.5" cy="465.9849" fill="none" rx="3" ry="3" style="stroke:#5D8BF4;stroke-width:1.0;"/><text fill="#F0F4FF" font-family="sans-serif" font-size="13" lengthAdjust="spacing" textLength="125" x="57.5" y="469.5289">programacion : array</text><line style="stroke:#5D8BF4;stroke-width:0.5;" x1="38.5" x2="187.5" y1="477.3379" y2="477.3379"/></g><!--class ProgramacionDia--><g id="elem_ProgramacionDia"><rect codeLine="59" fill="none" height="171.9421" id="ProgramacionDia" rx="2.5" ry="2.5" style="stroke:#5D8BF4;stroke-width:0.5;" width="192" x="22" y="563.2199"/><ellipse cx="62.2" cy="579.2199" fill="none" rx="11" ry="11" style="stroke:#5D8BF4;stroke-width:1.0;"/><path d="M66.3094,585.2199 L58.5906,585.2199 L58.5906,572.8293 L66.3094,572.8293 L66.3094,574.9855 L61.0438,574.9855 L61.0438,577.6574 L65.8094,577.6574 L65.8094,579.8136 L61.0438,579.8136 L61.0438,583.0636 L66.3094,583.0636 L66.3094,585.2199 Z " fill="#F0F4FF"/><text fill="#F0F4FF" font-family="sans-serif" font-size="13" lengthAdjust="spacing" textLength="104" x="81.8" y="584.2639">ProgramacionDia</text><line style="stroke:#5D8BF4;stroke-width:0.5;" x1="23" x2="213" y1="595.2199" y2="595.2199"/><ellipse cx="33" cy="609.5729" fill="none" rx="3" ry="3" style="stroke:#5D8BF4;stroke-width:1.0;"/><text fill="#F0F4FF" font-family="sans-serif" font-size="13" lengthAdjust="spacing" textLength="62" x="42" y="613.1169">dia : string</text><ellipse cx="33" cy="627.2789" fill="none" rx="3" ry="3" style="stroke:#5D8BF4;stroke-width:1.0;"/><text fill="#F0F4FF" font-family="sans-serif" font-size="13" lengthAdjust="spacing" textLength="109" x="42" y="630.8229">hora_inicio : string</text><ellipse cx="33" cy="644.9849" fill="none" rx="3" ry="3" style="stroke:#5D8BF4;stroke-width:1.0;"/><text fill="#F0F4FF" font-family="sans-serif" font-size="13" lengthAdjust="spacing" textLength="134" x="42" y="648.5289">duracion_minutos : int</text><ellipse cx="33" cy="662.6909" fill="none" rx="3" ry="3" style="stroke:#5D8BF4;stroke-width:1.0;"/><text fill="#F0F4FF" font-family="sans-serif" font-size="13" lengthAdjust="spacing" textLength="149" x="42" y="666.2349">humedad_objetivo : float</text><ellipse cx="33" cy="680.397" fill="none" rx="3" ry="3" style="stroke:#5D8BF4;stroke-width:1.0;"/><text fill="#F0F4FF" font-family="sans-serif" font-size="13" lengthAdjust="spacing" textLength="104" x="42" y="683.941">ph_minimo : float</text><ellipse cx="33" cy="698.103" fill="none" rx="3" ry="3" style="stroke:#5D8BF4;stroke-width:1.0;"/><text fill="#F0F4FF" font-family="sans-serif" font-size="13" lengthAdjust="spacing" textLength="107" x="42" y="701.647">ph_maximo : float</text><ellipse cx="33" cy="715.809" fill="none" rx="3" ry="3" style="stroke:#5D8BF4;stroke-width:1.0;"/><text fill="#F0F4FF" font-family="sans-serif" font-size="13" lengthAdjust="spacing" textLength="166" x="42" y="719.353">temperatura_maxima : float</text><line style="stroke:#5D8BF4;stroke-width:0.5;" x1="23" x2="213" y1="727.162" y2="727.162"/></g><!--class Sugerencia--><g id="elem_Sugerencia"><rect codeLine="69" fill="none" height="136.5301" id="Sugerencia" rx="2.5" ry="2.5" style="stroke:#5D8BF4;stroke-width:0.5;" width="132" x="428" y="366.2199"/><ellipse cx="458.3" cy="382.2199" fill="none" rx="11" ry="11" style="stroke:#5D8BF4;stroke-width:1.0;"/><path d="M462.4094,388.2199 L454.6906,388.2199 L454.6906,375.8293 L462.4094,375.8293 L462.4094,377.9855 L457.1438,377.9855 L457.1438,380.6574 L461.9094,380.6574 L461.9094,382.8136 L457.1438,382.8136 L457.1438,386.0636 L462.4094,386.0636 L462.4094,388.2199 Z " fill="#F0F4FF"/><text fill="#F0F4FF" font-family="sans-serif" font-size="13" lengthAdjust="spacing" textLength="66" x="475.7" y="387.2639">Sugerencia</text><line style="stroke:#5D8BF4;stroke-width:0.5;" x1="429" x2="559" y1="398.2199" y2="398.2199"/><ellipse cx="439" cy="412.5729" fill="none" rx="3" ry="3" style="stroke:#5D8BF4;stroke-width:1.0;"/><text fill="#F0F4FF" font-family="sans-serif" font-size="13" lengthAdjust="spacing" textLength="77" x="448" y="416.1169">_id : ObjectId</text><ellipse cx="439" cy="430.2789" fill="none" rx="3" ry="3" style="stroke:#5D8BF4;stroke-width:1.0;"/><text fill="#F0F4FF" font-family="sans-serif" font-size="13" lengthAdjust="spacing" textLength="106" x="448" y="433.8229">zona_id : ObjectId</text><ellipse cx="439" cy="447.9849" fill="none" rx="3" ry="3" style="stroke:#5D8BF4;stroke-width:1.0;"/><text fill="#F0F4FF" font-family="sans-serif" font-size="13" lengthAdjust="spacing" textLength="95" x="448" y="451.5289">fecha : datetime</text><ellipse cx="439" cy="465.6909" fill="none" rx="3" ry="3" style="stroke:#5D8BF4;stroke-width:1.0;"/><text fill="#F0F4FF" font-family="sans-serif" font-size="13" lengthAdjust="spacing" textLength="94" x="448" y="469.2349">mensaje : string</text><ellipse cx="439" cy="483.397" fill="none" rx="3" ry="3" style="stroke:#5D8BF4;stroke-width:1.0;"/><text fill="#F0F4FF" font-family="sans-serif" font-size="13" lengthAdjust="spacing" textLength="93" x="448" y="486.941">impacto : enum</text><line style="stroke:#5D8BF4;stroke-width:0.5;" x1="429" x2="559" y1="494.75" y2="494.75"/></g><!--class LecturaSensor--><g id="elem_LecturaSensor"><rect codeLine="89" fill="none" height="189.6481" id="LecturaSensor" rx="2.5" ry="2.5" style="stroke:#5D8BF4;stroke-width:0.5;" width="155" x="314.5" y="834.7199"/><ellipse cx="346.15" cy="850.7199" fill="none" rx="11" ry="11" style="stroke:#5D8BF4;stroke-width:1.0;"/><path d="M350.2594,856.7199 L342.5406,856.7199 L342.5406,844.3293 L350.2594,844.3293 L350.2594,846.4855 L344.9938,846.4855 L344.9938,849.1574 L349.7594,849.1574 L349.7594,851.3136 L344.9938,851.3136 L344.9938,854.5636 L350.2594,854.5636 L350.2594,856.7199 Z " fill="#F0F4FF"/><text fill="#F0F4FF" font-family="sans-serif" font-size="13" lengthAdjust="spacing" textLength="86" x="363.85" y="855.7639">LecturaSensor</text><line style="stroke:#5D8BF4;stroke-width:0.5;" x1="315.5" x2="468.5" y1="866.7199" y2="866.7199"/><ellipse cx="325.5" cy="881.0729" fill="none" rx="3" ry="3" style="stroke:#5D8BF4;stroke-width:1.0;"/><text fill="#F0F4FF" font-family="sans-serif" font-size="13" lengthAdjust="spacing" textLength="77" x="334.5" y="884.6169">_id : ObjectId</text><ellipse cx="325.5" cy="898.7789" fill="none" rx="3" ry="3" style="stroke:#5D8BF4;stroke-width:1.0;"/><text fill="#F0F4FF" font-family="sans-serif" font-size="13" lengthAdjust="spacing" textLength="117" x="334.5" y="902.3229">sensor_id : ObjectId</text><ellipse cx="325.5" cy="916.4849" fill="none" rx="3" ry="3" style="stroke:#5D8BF4;stroke-width:1.0;"/><text fill="#F0F4FF" font-family="sans-serif" font-size="13" lengthAdjust="spacing" textLength="109" x="334.5" y="920.0289">nodo_id : ObjectId</text><ellipse cx="325.5" cy="934.1909" fill="none" rx="3" ry="3" style="stroke:#5D8BF4;stroke-width:1.0;"/><text fill="#F0F4FF" font-family="sans-serif" font-size="13" lengthAdjust="spacing" textLength="106" x="334.5" y="937.7349">zona_id : ObjectId</text><ellipse cx="325.5" cy="951.897" fill="none" rx="3" ry="3" style="stroke:#5D8BF4;stroke-width:1.0;"/><text fill="#F0F4FF" font-family="sans-serif" font-size="13" lengthAdjust="spacing" textLength="68" x="334.5" y="955.441">tipo : string</text><ellipse cx="325.5" cy="969.603" fill="none" rx="3" ry="3" style="stroke:#5D8BF4;stroke-width:1.0;"/><text fill="#F0F4FF" font-family="sans-serif" font-size="13" lengthAdjust="spacing" textLength="66" x="334.5" y="973.147">valor : float</text><ellipse cx="325.5" cy="987.309" fill="none" rx="3" ry="3" style="stroke:#5D8BF4;stroke-width:1.0;"/><text fill="#F0F4FF" font-family="sans-serif" font-size="13" lengthAdjust="spacing" textLength="86" x="334.5" y="990.853">unidad : string</text><ellipse cx="325.5" cy="1005.015" fill="none" rx="3" ry="3" style="stroke:#5D8BF4;stroke-width:1.0;"/><text fill="#F0F4FF" font-family="sans-serif" font-size="13" lengthAdjust="spacing" textLength="129" x="334.5" y="1008.559">fecha_hora : datetime</text><line style="stroke:#5D8BF4;stroke-width:0.5;" x1="315.5" x2="468.5" y1="1016.368" y2="1016.368"/></g><!--class RegistroRiego--><g id="elem_RegistroRiego"><rect codeLine="100" fill="none" height="207.3541" id="RegistroRiego" rx="2.5" ry="2.5" style="stroke:#5D8BF4;stroke-width:0.5;" width="210" x="505" y="826.2199"/><ellipse cx="563.75" cy="842.2199" fill="none" rx="11" ry="11" style="stroke:#5D8BF4;stroke-width:1.0;"/><path d="M567.8594,848.2199 L560.1406,848.2199 L560.1406,835.8293 L567.8594,835.8293 L567.8594,837.9855 L562.5938,837.9855 L562.5938,840.6574 L567.3594,840.6574 L567.3594,842.8136 L562.5938,842.8136 L562.5938,846.0636 L567.8594,846.0636 L567.8594,848.2199 Z " fill="#F0F4FF"/><text fill="#F0F4FF" font-family="sans-serif" font-size="13" lengthAdjust="spacing" textLength="84" x="584.25" y="847.2639">RegistroRiego</text><line style="stroke:#5D8BF4;stroke-width:0.5;" x1="506" x2="714" y1="858.2199" y2="858.2199"/><ellipse cx="516" cy="872.5729" fill="none" rx="3" ry="3" style="stroke:#5D8BF4;stroke-width:1.0;"/><text fill="#F0F4FF" font-family="sans-serif" font-size="13" lengthAdjust="spacing" textLength="77" x="525" y="876.1169">_id : ObjectId</text><ellipse cx="516" cy="890.2789" fill="none" rx="3" ry="3" style="stroke:#5D8BF4;stroke-width:1.0;"/><text fill="#F0F4FF" font-family="sans-serif" font-size="13" lengthAdjust="spacing" textLength="125" x="525" y="893.8229">regador_id : ObjectId</text><ellipse cx="516" cy="907.9849" fill="none" rx="3" ry="3" style="stroke:#5D8BF4;stroke-width:1.0;"/><text fill="#F0F4FF" font-family="sans-serif" font-size="13" lengthAdjust="spacing" textLength="109" x="525" y="911.5289">nodo_id : ObjectId</text><ellipse cx="516" cy="925.6909" fill="none" rx="3" ry="3" style="stroke:#5D8BF4;stroke-width:1.0;"/><text fill="#F0F4FF" font-family="sans-serif" font-size="13" lengthAdjust="spacing" textLength="106" x="525" y="929.2349">zona_id : ObjectId</text><ellipse cx="516" cy="943.397" fill="none" rx="3" ry="3" style="stroke:#5D8BF4;stroke-width:1.0;"/><text fill="#F0F4FF" font-family="sans-serif" font-size="13" lengthAdjust="spacing" textLength="160" x="525" y="946.941">cantidad_agua_litros : float</text><ellipse cx="516" cy="961.103" fill="none" rx="3" ry="3" style="stroke:#5D8BF4;stroke-width:1.0;"/><text fill="#F0F4FF" font-family="sans-serif" font-size="13" lengthAdjust="spacing" textLength="184" x="525" y="964.647">energia_consumida_kwh : float</text><ellipse cx="516" cy="978.809" fill="none" rx="3" ry="3" style="stroke:#5D8BF4;stroke-width:1.0;"/><text fill="#F0F4FF" font-family="sans-serif" font-size="13" lengthAdjust="spacing" textLength="143" x="525" y="982.353">duracion_segundos : int</text><ellipse cx="516" cy="996.515" fill="none" rx="3" ry="3" style="stroke:#5D8BF4;stroke-width:1.0;"/><text fill="#F0F4FF" font-family="sans-serif" font-size="13" lengthAdjust="spacing" textLength="166" x="525" y="1000.059">fecha_hora_inicio : datetime</text><ellipse cx="516" cy="1014.221" fill="none" rx="3" ry="3" style="stroke:#5D8BF4;stroke-width:1.0;"/><text fill="#F0F4FF" font-family="sans-serif" font-size="13" lengthAdjust="spacing" textLength="150" x="525" y="1017.765">fecha_hora_fin : datetime</text><line style="stroke:#5D8BF4;stroke-width:0.5;" x1="506" x2="714" y1="1025.574" y2="1025.574"/></g><!--link ZonaRiego to Nodo--><g id="link_ZonaRiego_Nodo"><path codeLine="79" d="M274.69,279.8499 C280.46,306.5099 287.32,338.2099 293.32,365.8899 " fill="none" id="ZonaRiego-Nodo" style="stroke:#85A6FF;stroke-width:0.5;"/><text fill="#FFFFFF" font-family="sans-serif" font-size="13" lengthAdjust="spacing" textLength="7" x="268.6952" y="301.2468">1</text><text fill="#FFFFFF" font-family="sans-serif" font-size="13" lengthAdjust="spacing" textLength="20" x="270.6206" y="354.3932">0..*</text></g><!--link Nodo to Sensor--><g id="link_Nodo_Sensor"><path codeLine="80" d="M311.18,503.2499 C312.34,527.9199 313.65,555.8199 314.81,580.4999 " fill="none" id="Nodo-Sensor" style="stroke:#85A6FF;stroke-width:0.5;"/><text fill="#FFFFFF" font-family="sans-serif" font-size="13" lengthAdjust="spacing" textLength="7" x="304.1495" y="524.5449">1</text><text fill="#FFFFFF" font-family="sans-serif" font-size="13" lengthAdjust="spacing" textLength="20" x="293.3673" y="569.0153">0..*</text></g><!--link Nodo to Regador--><g id="link_Nodo_Regador"><path codeLine="81" d="M366.15,503.2499 C390.02,530.9599 417.38,562.7399 440.4,589.4699 " fill="none" id="Nodo-Regador" style="stroke:#85A6FF;stroke-width:0.5;"/><text fill="#FFFFFF" font-family="sans-serif" font-size="13" lengthAdjust="spacing" textLength="7" x="364.3588" y="524.5449">1</text><text fill="#FFFFFF" font-family="sans-serif" font-size="13" lengthAdjust="spacing" textLength="20" x="413.0144" y="578.1027">0..*</text></g><!--link ZonaRiego to ConfiguracionRiego--><g id="link_ZonaRiego_ConfiguracionRiego"><path codeLine="82" d="M220.89,279.8499 C197.98,312.5299 169.75,352.7799 147.92,383.9199 " fill="none" id="ZonaRiego-ConfiguracionRiego" style="stroke:#85A6FF;stroke-width:0.5;"/><text fill="#FFFFFF" font-family="sans-serif" font-size="13" lengthAdjust="spacing" textLength="7" x="209.0108" y="301.2468">1</text><text fill="#FFFFFF" font-family="sans-serif" font-size="13" lengthAdjust="spacing" textLength="20" x="131.4244" y="372.5192">0..*</text></g><!--link ZonaRiego to Sugerencia--><g id="link_ZonaRiego_Sugerencia"><path codeLine="83" d="M326.01,279.8499 C357.66,308.8399 395.83,343.7999 427.78,373.0599 " fill="none" id="ZonaRiego-Sugerencia" style="stroke:#85A6FF;stroke-width:0.5;"/><text fill="#FFFFFF" font-family="sans-serif" font-size="13" lengthAdjust="spacing" textLength="7" x="325.6283" y="301.2468">1</text><text fill="#FFFFFF" font-family="sans-serif" font-size="13" lengthAdjust="spacing" textLength="20" x="399.9198" y="362.7823">0..*</text></g><!--link Sensor to LecturaSensor--><g id="link_Sensor_LecturaSensor"><path codeLine="113" d="M336.01,717.9899 C345.31,753.0099 356.82,796.3099 366.97,834.5299 " fill="none" id="Sensor-LecturaSensor" style="stroke:#85A6FF;stroke-width:0.5;"/><text fill="#FFFFFF" font-family="sans-serif" font-size="13" lengthAdjust="spacing" textLength="7" x="330.3476" y="739.0644">1</text><text fill="#FFFFFF" font-family="sans-serif" font-size="13" lengthAdjust="spacing" textLength="20" x="344.0691" y="822.8839">0..*</text></g><!--link Regador to RegistroRiego--><g id="link_Regador_RegistroRiego"><path codeLine="114" d="M516.09,708.9399 C530.62,742.9299 549.31,786.6799 566.19,826.1799 " fill="none" id="Regador-RegistroRiego" style="stroke:#85A6FF;stroke-width:0.5;"/><text fill="#FFFFFF" font-family="sans-serif" font-size="13" lengthAdjust="spacing" textLength="7" x="511.4514" y="730.3467">1</text><text fill="#FFFFFF" font-family="sans-serif" font-size="13" lengthAdjust="spacing" textLength="20" x="542.0702" y="814.5123">0..*</text></g><!--link Nodo to LecturaSensor--><g id="link_Nodo_LecturaSensor"><path codeLine="115" d="M392.52,493.8299 C398.35,497.1599 404.21,500.3199 410,503.2199 C480.91,538.6899 532.33,498.4099 578,563.2199 C628.18,634.4299 636.81,694.9499 578,759.2199 C564.45,774.0299 505,756.5299 488,767.2199 C462.6,783.1999 443.06,808.5499 428.44,834.4799 " fill="none" id="Nodo-LecturaSensor" style="stroke:#85A6FF;stroke-width:0.5;"/><text fill="#FFFFFF" font-family="sans-serif" font-size="13" lengthAdjust="spacing" textLength="7" x="400.6343" y="495.4467">1</text><text fill="#FFFFFF" font-family="sans-serif" font-size="13" lengthAdjust="spacing" textLength="20" x="410.6296" y="822.8297">0..*</text></g><!--link Nodo to RegistroRiego--><g id="link_Nodo_RegistroRiego"><path codeLine="116" d="M392.58,494.4599 C398.37,497.6099 404.21,500.5699 410,503.2199 C499.83,544.3099 564.32,484.5099 624,563.2199 C680.21,637.3499 667.5,746.3299 646.34,825.9999 " fill="none" id="Nodo-RegistroRiego" style="stroke:#85A6FF;stroke-width:0.5;"/><text fill="#FFFFFF" font-family="sans-serif" font-size="13" lengthAdjust="spacing" textLength="7" x="400.4246" y="514.4869">1</text><text fill="#FFFFFF" font-family="sans-serif" font-size="13" lengthAdjust="spacing" textLength="20" x="628.3567" y="814.3185">0..*</text></g><!--link ConfiguracionRiego to ProgramacionDia--><g id="link_ConfiguracionRiego_ProgramacionDia"><path codeLine="117" d="M114.17,485.2699 C114.71,508.4499 115.38,536.7199 116,563.1699 " fill="none" id="ConfiguracionRiego-ProgramacionDia" style="stroke:#85A6FF;stroke-width:0.5;"/><text fill="#FFFFFF" font-family="sans-serif" font-size="13" lengthAdjust="spacing" textLength="7" x="106.8569" y="507.1412">1</text><text fill="#FFFFFF" font-family="sans-serif" font-size="13" lengthAdjust="spacing" textLength="20" x="94.8938" y="551.3858">0..*</text></g><!--SRC=[hLRDRjD04BxxAPOSg4JL5gwv0P6W4YfL2XSkrcHtOczhxvhzQGce1sw8Am-0U8O-Gb-8Hs3MTkhVH6cB3r7i-NRzpUmtt_Y9L3pp0fbrgmoFSYcKJ59tm5SBD8U5pxCeSj9boFx-_lMJlGABZD0pSDgo4ytcc06NMa762Z30pgHrc4F0p2KcEegYFJR3fLGofnLV2MaPrufZuJnaQAC2-0Kao2RqWk_ijLPBcNX3czxUAFQKlJIVlNJ87JsRi6yHewlyGKMyLkoZzM2ahYFXse-bO5FsVd5Eguv5yrpfV64mzlMAAULif4hwW940PIIpaUS5M7kbZOXJiEb8tEYnLKlaASG64wgL2Jm4E7Gonn9o7RNJ-qG5AmkvGu9xRB_ERNi5HYZvXUJbEL9ifdcVApUuZlQvTjYUQB7JIGGPt9kZGCkDB6eU_IZNT0weG92-fkmDwbCjbHkfw1aggyrkUX4RA-baCQQWN0lCz7t8TydDCG7nU7QFfT7gGgrsbT_MKosCJWpaQnM1CR0QUV5f2pQJq7wheDjXGgasz4ub-MX3Ypg5E9VA1yUQihKegjK-Hm4YriJNoSkmnJBJq48KQLXBtZKUWY-Z8RB00Wq4pwemqC7q1EaJDAXuDzs75BbirdwFLe8WqSFvM5V9d0pOXHnG-RnDR-_EtD46hjIKWJ7LAznR1ujWtnLoxSAJ5nDsSC0cpmyFdqqQyofHZPLrKS4qIa3f7jrOrQoRedMtRDrzAEMjyEOmekimkW8k33DH3ZmXrUsVN7BwUyHIik_R6nFkEaFiHpqTtpPnTgm_XE7LFlPtrKpRtOviYNo87MpJp0OZkuICM0s4xLKu_uqpBNJZzdashwVUpgPYgZF-tsbpgAGSG-8XpYHHiiDqKQ599Cq_hQodRoE8BwxI8UpEPYmcNecXppJLQRngsAGj57qlRQXZfolNUgo-gJQrPosnhj0xyYjXwzapwB7cm3Orud2pyMxjxJGoPhfBUkCWjEG_]--></g></svg>