<?xml version="1.0" encoding="us-ascii" standalone="no"?><svg xmlns="http://www.w3.org/2000/svg" xmlns:xlink="http://www.w3.org/1999/xlink" contentStyleType="text/css" height="1066px" preserveAspectRatio="none" style="width:1855px;height:1066px;" version="1.1" viewBox="0 0 1855 1066" width="1855px" zoomAndPan="magnify"><defs/><g><!--cluster Campo--><g id="cluster_Campo"><path d="M654,9.532 L740,9.532 A3,3 0 0 1 742,11.532 L749,48.2199 L1486,48.2199 A2,2 0 0 1 1488,50.2199 L1488,931.032 A2,2 0 0 1 1486,933.032 L654,933.032 A2,2 0 0 1 652,931.032 L652,11.532 A2,2 0 0 1 654,9.532 " fill="#1A1A2E" style="stroke:#5D8BF4;stroke-width:1.5;"/><line style="stroke:#5D8BF4;stroke-width:1.5;" x1="652" x2="749" y1="48.2199" y2="48.2199"/><text fill="#85A6FF" font-family="sans-serif" font-size="24" font-weight="bold" lengthAdjust="spacing" textLength="84" x="656" y="37.1879">Campo</text><text fill="#F0F4FF" font-family="sans-serif" font-size="13" font-style="italic" lengthAdjust="spacing" textLength="51" x="1048.5" y="64.1169">&#171;campo&#187;</text></g><!--cluster Dispositivo Edge\n(Raspberry Pi)--><g id="cluster_Dispositivo Edge\n(Raspberry Pi)"><polygon fill="#1A1A2E" points="684,104.532,694,94.532,1028,94.532,1028,739.532,1018,749.532,684,749.532,684,104.532" style="stroke:#5D8BF4;stroke-width:1.0;"/><line style="stroke:#5D8BF4;stroke-width:1.0;" x1="1018" x2="1028" y1="104.532" y2="94.532"/><line style="stroke:#5D8BF4;stroke-width:1.0;" x1="684" x2="1018" y1="104.532" y2="104.532"/><line style="stroke:#5D8BF4;stroke-width:1.0;" x1="1018" x2="1018" y1="104.532" y2="749.532"/><text fill="#85A6FF" font-family="sans-serif" font-size="24" font-weight="bold" lengthAdjust="spacing" textLength="195" x="754.5" y="133.1879">Dispositivo Edge</text><text fill="#85A6FF" font-family="sans-serif" font-size="24" font-weight="bold" lengthAdjust="spacing" textLength="167" x="768.5" y="165.8758">(Raspberry Pi)</text></g><!--cluster Servidor Local\n(Django)--><g id="cluster_Servidor Local\n(Django)"><polygon fill="#1A1A2E" points="1060,353.532,1070,343.532,1377,343.532,1377,748.032,1367,758.032,1060,758.032,1060,353.532" style="stroke:#5D8BF4;stroke-width:1.0;"/><line style="stroke:#5D8BF4;stroke-width:1.0;" x1="1367" x2="1377" y1="353.532" y2="343.532"/><line style="stroke:#5D8BF4;stroke-width:1.0;" x1="1060" x2="1367" y1="353.532" y2="353.532"/><line style="stroke:#5D8BF4;stroke-width:1.0;" x1="1367" x2="1367" y1="353.532" y2="758.032"/><text fill="#85A6FF" font-family="sans-serif" font-size="24" font-weight="bold" lengthAdjust="spacing" textLength="169" x="1130" y="382.1879">Servidor Local</text><text fill="#85A6FF" font-family="sans-serif" font-size="24" font-weight="bold" lengthAdjust="spacing" textLength="102" x="1163.5" y="414.8758">(Django)</text></g><!--cluster Nube--><g id="cluster_Nube"><path d="M1514,582.532 L1581,582.532 A3,3 0 0 1 1583,584.532 L1590,621.2199 L1846,621.2199 A2,2 0 0 1 1848,623.2199 L1848,1057.032 A2,2 0 0 1 1846,1059.032 L1514,1059.032 A2,2 0 0 1 1512,1057.032 L1512,584.532 A2,2 0 0 1 1514,582.532 " fill="#1A1A2E" style="stroke:#5D8BF4;stroke-width:1.5;"/><line style="stroke:#5D8BF4;stroke-width:1.5;" x1="1512" x2="1590" y1="621.2199" y2="621.2199"/><text fill="#85A6FF" font-family="sans-serif" font-size="24" font-weight="bold" lengthAdjust="spacing" textLength="65" x="1516" y="610.1879">Nube</text><text fill="#F0F4FF" font-family="sans-serif" font-size="13" font-style="italic" lengthAdjust="spacing" textLength="42" x="1663" y="637.1169">&#171;nube&#187;</text></g><!--cluster Navegador--><g id="cluster_Navegador"><path d="M8,122.532 L144,122.532 A3,3 0 0 1 146,124.532 L153,161.2199 L626,161.2199 A2,2 0 0 1 628,163.2199 L628,290.532 A2,2 0 0 1 626,292.532 L8,292.532 A2,2 0 0 1 6,290.532 L6,124.532 A2,2 0 0 1 8,122.532 " fill="#1A1A2E" style="stroke:#5D8BF4;stroke-width:1.5;"/><line style="stroke:#5D8BF4;stroke-width:1.5;" x1="6" x2="153" y1="161.2199" y2="161.2199"/><text fill="#85A6FF" font-family="sans-serif" font-size="24" font-weight="bold" lengthAdjust="spacing" textLength="134" x="10" y="150.1879">Navegador</text><text fill="#F0F4FF" font-family="sans-serif" font-size="13" font-style="italic" lengthAdjust="spacing" textLength="74" x="284" y="177.1169">&#171;navegador&#187;</text></g><!--entity MongoDB\n(Local)--><g id="elem_MongoDB\n(Local)"><path d="M1099,833.032 C1099,823.032 1168,823.032 1168,823.032 C1168,823.032 1237,823.032 1237,833.032 L1237,907.4078 C1237,917.4078 1168,917.4078 1168,917.4078 C1168,917.4078 1099,917.4078 1099,907.4078 L1099,833.032 " fill="#1A1A2E" style="stroke:#00F5E9;stroke-width:0.5;"/><path d="M1099,833.032 C1099,843.032 1168,843.032 1168,843.032 C1168,843.032 1237,843.032 1237,833.032 " fill="none" style="stroke:#00F5E9;stroke-width:0.5;"/><text fill="#85A6FF" font-family="sans-serif" font-size="24" font-weight="bold" lengthAdjust="spacing" textLength="118" x="1109" y="872.6879">MongoDB</text><text fill="#85A6FF" font-family="sans-serif" font-size="24" font-weight="bold" lengthAdjust="spacing" textLength="79" x="1128.5" y="905.3758">(Local)</text></g><!--entity Sensores--><g id="elem_Sensores"><rect fill="#1A1A2E" height="85.3758" rx="2" ry="2" style="stroke:#00F5E9;stroke-width:0.5;" width="127" x="788.5" y="191.532"/><text fill="#85A6FF" font-family="sans-serif" font-size="24" font-weight="bold" lengthAdjust="spacing" textLength="106" x="799" y="227.1879">&#171;device&#187;</text><text fill="#85A6FF" font-family="sans-serif" font-size="24" font-weight="bold" lengthAdjust="spacing" textLength="107" x="798.5" y="259.8758">Sensores</text></g><!--entity Captura Datos--><g id="elem_Captura Datos"><rect fill="#1A1A2E" height="52.6879" rx="2" ry="2" style="stroke:#00F5E9;stroke-width:0.5;" width="193" x="755.5" y="448.532"/><text fill="#85A6FF" font-family="sans-serif" font-size="24" font-weight="bold" lengthAdjust="spacing" textLength="173" x="765.5" y="484.1879">Captura Datos</text></g><!--entity M?dulo Comunicaci?n--><g id="elem_M&#243;dulo Comunicaci&#243;n"><rect fill="#1A1A2E" height="85.3758" rx="2" ry="2" style="stroke:#00F5E9;stroke-width:0.5;" width="287" x="708.5" y="640.532"/><text fill="#85A6FF" font-family="sans-serif" font-size="24" font-weight="bold" lengthAdjust="spacing" textLength="106" x="799" y="676.1879">&#171;device&#187;</text><text fill="#85A6FF" font-family="sans-serif" font-size="24" font-weight="bold" lengthAdjust="spacing" textLength="267" x="718.5" y="708.8758">M&#243;dulo Comunicaci&#243;n</text></g><!--entity Backend\n(Django)--><g id="elem_Backend\n(Django)"><rect fill="#1A1A2E" height="118.0637" rx="2" ry="2" style="stroke:#00F5E9;stroke-width:0.5;" width="185" x="1075.5" y="624.032"/><text fill="#85A6FF" font-family="sans-serif" font-size="24" font-weight="bold" lengthAdjust="spacing" textLength="165" x="1085.5" y="659.6879">&#171;framework&#187;</text><text fill="#85A6FF" font-family="sans-serif" font-size="24" font-weight="bold" lengthAdjust="spacing" textLength="103" x="1116.5" y="692.3758">Backend</text><text fill="#85A6FF" font-family="sans-serif" font-size="24" font-weight="bold" lengthAdjust="spacing" textLength="102" x="1117" y="725.0637">(Django)</text></g><!--entity Motor IA--><g id="elem_Motor IA"><rect fill="#1A1A2E" height="85.3758" rx="2" ry="2" style="stroke:#00F5E9;stroke-width:0.5;" width="126" x="1076" y="432.532"/><text fill="#85A6FF" font-family="sans-serif" font-size="24" font-weight="bold" lengthAdjust="spacing" textLength="56" x="1111" y="468.1879">&#171;AI&#187;</text><text fill="#85A6FF" font-family="sans-serif" font-size="24" font-weight="bold" lengthAdjust="spacing" textLength="106" x="1086" y="500.8758">Motor IA</text></g><!--entity API REST--><g id="elem_API REST"><rect fill="#1A1A2E" height="52.6879" rx="2" ry="2" style="stroke:#00F5E9;stroke-width:0.5;" width="123" x="1237.5" y="448.532"/><text fill="#85A6FF" font-family="sans-serif" font-size="24" font-weight="bold" lengthAdjust="spacing" textLength="103" x="1247.5" y="484.1879">API REST</text></g><!--entity Amazon Amplify--><g id="elem_Amazon Amplify"><polygon fill="#1A1A2E" points="1528,990.032,1538,980.032,1766,980.032,1766,1032.7199,1756,1042.7199,1528,1042.7199,1528,990.032" style="stroke:#00F5E9;stroke-width:0.5;"/><line style="stroke:#00F5E9;stroke-width:0.5;" x1="1756" x2="1766" y1="990.032" y2="980.032"/><line style="stroke:#00F5E9;stroke-width:0.5;" x1="1528" x2="1756" y1="990.032" y2="990.032"/><line style="stroke:#00F5E9;stroke-width:0.5;" x1="1756" x2="1756" y1="990.032" y2="1042.7199"/><text fill="#85A6FF" font-family="sans-serif" font-size="24" font-weight="bold" lengthAdjust="spacing" textLength="198" x="1543" y="1025.6879">Amazon Amplify</text></g><!--entity Amazon API Gateway--><g id="elem_Amazon API Gateway"><polygon fill="#1A1A2E" points="1529,661.532,1539,651.532,1827,651.532,1827,704.2199,1817,714.2199,1529,714.2199,1529,661.532" style="stroke:#00F5E9;stroke-width:0.5;"/><line style="stroke:#00F5E9;stroke-width:0.5;" x1="1817" x2="1827" y1="661.532" y2="651.532"/><line style="stroke:#00F5E9;stroke-width:0.5;" x1="1529" x2="1817" y1="661.532" y2="661.532"/><line style="stroke:#00F5E9;stroke-width:0.5;" x1="1817" x2="1817" y1="661.532" y2="714.2199"/><text fill="#85A6FF" font-family="sans-serif" font-size="24" font-weight="bold" lengthAdjust="spacing" textLength="258" x="1544" y="697.1879">Amazon API Gateway</text></g><!--entity Amazon DocumentDB--><g id="elem_Amazon DocumentDB"><polygon fill="#1A1A2E" points="1528,848.532,1538,838.532,1832,838.532,1832,891.2199,1822,901.2199,1528,901.2199,1528,848.532" style="stroke:#00F5E9;stroke-width:0.5;"/><line style="stroke:#00F5E9;stroke-width:0.5;" x1="1822" x2="1832" y1="848.532" y2="838.532"/><line style="stroke:#00F5E9;stroke-width:0.5;" x1="1528" x2="1822" y1="848.532" y2="848.532"/><line style="stroke:#00F5E9;stroke-width:0.5;" x1="1822" x2="1822" y1="848.532" y2="901.2199"/><text fill="#85A6FF" font-family="sans-serif" font-size="24" font-weight="bold" lengthAdjust="spacing" textLength="264" x="1543" y="884.1879">Amazon DocumentDB</text></g><!--entity NAVEGADOR\n(LOCAL)--><g id="elem_NAVEGADOR\n(LOCAL)"><rect fill="#1A1A2E" height="85.3758" rx="2" ry="2" style="stroke:#00F5E9;stroke-width:0.5;" width="173" x="438.5" y="191.532"/><text fill="#85A6FF" font-family="sans-serif" font-size="24" font-weight="bold" lengthAdjust="spacing" textLength="153" x="448.5" y="227.1879">NAVEGADOR</text><text fill="#85A6FF" font-family="sans-serif" font-size="24" font-weight="bold" lengthAdjust="spacing" textLength="95" x="477.5" y="259.8758">(LOCAL)</text></g><!--entity NAVEGADOR\n(INTERNET)--><g id="elem_NAVEGADOR\n(INTERNET)"><rect fill="#1A1A2E" height="85.3758" rx="2" ry="2" style="stroke:#00F5E9;stroke-width:0.5;" width="173" x="22.5" y="191.532"/><text fill="#85A6FF" font-family="sans-serif" font-size="24" font-weight="bold" lengthAdjust="spacing" textLength="153" x="32.5" y="227.1879">NAVEGADOR</text><text fill="#85A6FF" font-family="sans-serif" font-size="24" font-weight="bold" lengthAdjust="spacing" textLength="135" x="41.5" y="259.8758">(INTERNET)</text></g><!--entity NAVEGADOR\n(TRY ALL)--><g id="elem_NAVEGADOR\n(TRY ALL)"><rect fill="#1A1A2E" height="85.3758" rx="2" ry="2" style="stroke:#00F5E9;stroke-width:0.5;" width="173" x="230.5" y="191.532"/><text fill="#85A6FF" font-family="sans-serif" font-size="24" font-weight="bold" lengthAdjust="spacing" textLength="153" x="240.5" y="227.1879">NAVEGADOR</text><text fill="#85A6FF" font-family="sans-serif" font-size="24" font-weight="bold" lengthAdjust="spacing" textLength="112" x="261" y="259.8758">(TRY ALL)</text></g><!--link Sensores to Captura Datos--><g id="link_Sensores_Captura Datos"><path d="M852,276.662 C852,326.142 852,401.182 852,442.332 " fill="none" id="Sensores-to-Captura Datos" style="stroke:#85A6FF;stroke-width:0.9;"/><polygon fill="#85A6FF" points="852,448.332,856,439.332,852,443.332,848,439.332,852,448.332" style="stroke:#85A6FF;stroke-width:0.9;"/><text fill="#FFFFFF" font-family="sans-serif" font-size="13" lengthAdjust="spacing" textLength="98" x="853" y="323.429">provee variables</text></g><!--link Captura Datos to M?dulo Comunicaci?n--><g id="link_Captura Datos_M&#243;dulo Comunicaci&#243;n"><path d="M852,501.702 C852,536.432 852,592.802 852,634.312 " fill="none" id="Captura Datos-to-M&#243;dulo Comunicaci&#243;n" style="stroke:#85A6FF;stroke-width:0.9;"/><polygon fill="#85A6FF" points="852,640.312,856,631.312,852,635.312,848,631.312,852,640.312" style="stroke:#85A6FF;stroke-width:0.9;"/><text fill="#FFFFFF" font-family="sans-serif" font-size="13" lengthAdjust="spacing" textLength="95" x="853" y="562.429">transmite datos</text></g><!--link API REST to Backend\n(Django)--><g id="link_API REST_Backend\n(Django)"><path d="M1301.05,501.692 C1301.26,521.412 1298.41,548.282 1284,566.532 C1278.32,573.722 1272.47,569.222 1265,574.532 C1245.74,588.212 1231.4945,601.8296 1216.1845,619.2996 " fill="none" id="API REST-to-Backend\n(Django)" style="stroke:#85A6FF;stroke-width:0.9;"/><polygon fill="#85A6FF" points="1212.23,623.812,1221.17,619.6797,1215.5254,620.0516,1215.1535,614.407,1212.23,623.812" style="stroke:#85A6FF;stroke-width:0.9;"/></g><!--link Motor IA to Backend\n(Django)--><g id="link_Motor IA_Backend\n(Django)"><path d="M1141.87,517.572 C1143.14,532.982 1144.85,550.592 1147,566.532 C1149.53,585.312 1151.9125,599.7914 1155.2925,618.1314 " fill="none" id="Motor IA-to-Backend\n(Django)" style="stroke:#85A6FF;stroke-width:0.9;"/><polygon fill="#85A6FF" points="1156.38,624.032,1158.6826,614.4561,1155.4738,619.1148,1150.815,615.906,1156.38,624.032" style="stroke:#85A6FF;stroke-width:0.9;"/><text fill="#FFFFFF" font-family="sans-serif" font-size="13" lengthAdjust="spacing" textLength="131" x="1148" y="562.429">an&#225;lisis y predicciones</text></g><!--link Backend\n(Django) to MongoDB\n(Local)--><g id="link_Backend\n(Django)_MongoDB\n(Local)"><path d="M1168,742.062 C1168,768.132 1168,792.462 1168,816.932 " fill="none" id="Backend\n(Django)-to-MongoDB\n(Local)" style="stroke:#85A6FF;stroke-width:0.9;"/><polygon fill="#85A6FF" points="1168,822.932,1172,813.932,1168,817.932,1164,813.932,1168,822.932" style="stroke:#85A6FF;stroke-width:0.9;"/><text fill="#FFFFFF" font-family="sans-serif" font-size="13" lengthAdjust="spacing" textLength="87" x="1169" y="788.929">acceso a datos</text></g><!--link Motor IA to MongoDB\n(Local)--><g id="link_Motor IA_MongoDB\n(Local)"><path d="M1202.06,508.782 C1208.1,511.792 1214.15,514.742 1220,517.532 C1249.82,531.732 1269.96,519.862 1288,547.532 C1347.84,639.342 1333.69,707.642 1265,793.032 C1256.42,803.702 1250.6243,809.8874 1239.9243,819.0174 " fill="none" id="Motor IA-to-MongoDB\n(Local)" style="stroke:#85A6FF;stroke-width:0.9;"/><polygon fill="#85A6FF" points="1235.36,822.912,1244.8028,820.113,1239.1636,819.6665,1239.61,814.0273,1235.36,822.912" style="stroke:#85A6FF;stroke-width:0.9;"/><text fill="#FFFFFF" font-family="sans-serif" font-size="13" lengthAdjust="spacing" textLength="139" x="1326" y="688.429">analiza datos hist&#243;ricos</text></g><!--link Amazon API Gateway to Amazon DocumentDB--><g id="link_Amazon API Gateway_Amazon DocumentDB"><path d="M1678.33,714.582 C1678.7,748.862 1679.2353,798.1423 1679.6053,832.4423 " fill="none" id="Amazon API Gateway-to-Amazon DocumentDB" style="stroke:#85A6FF;stroke-width:0.9;"/><polygon fill="#85A6FF" points="1679.67,838.442,1683.5727,829.3994,1679.6161,833.4423,1675.5732,829.4856,1679.67,838.442" style="stroke:#85A6FF;stroke-width:0.9;"/></g><!--link Amazon DocumentDB to Amazon Amplify--><g id="link_Amazon DocumentDB_Amazon Amplify"><path d="M1672.76,901.642 C1667.26,924.902 1661.0994,950.9127 1655.6094,974.1527 " fill="none" id="Amazon DocumentDB-to-Amazon Amplify" style="stroke:#85A6FF;stroke-width:0.9;"/><polygon fill="#85A6FF" points="1654.23,979.992,1660.192,972.1527,1655.3795,975.1259,1652.4063,970.3134,1654.23,979.992" style="stroke:#85A6FF;stroke-width:0.9;"/></g><!--link Dispositivo Edge\n(Raspberry Pi) to API REST--><g id="link_Dispositivo Edge\n(Raspberry Pi)_API REST"><path d="M1028.028,237.2132 C1028.1597,237.2506 1028.2929,237.2885 1028.4276,237.3269 C1028.9664,237.4804 1029.5288,237.6416 1030.114,237.8106 C1031.2845,238.1485 1032.5465,238.5174 1033.8947,238.9175 C1036.5911,239.7177 1039.6323,240.6425 1042.9756,241.6929 C1056.3488,245.8945 1074.555,252.1057 1094.86,260.392 C1135.47,276.9645 1184.475,301.837 1220,335.532 C1254.04,367.822 1275.4193,412.4981 1287.4793,442.7681 " fill="none" id="Dispositivo Edge\n(Raspberry Pi)-to-API REST" style="stroke:#85A6FF;stroke-width:0.9;"/><polygon fill="#85A6FF" points="1289.7,448.342,1290.0849,438.5006,1287.8494,443.6971,1282.653,441.4616,1289.7,448.342" style="stroke:#85A6FF;stroke-width:0.9;"/><text fill="#FFFFFF" font-family="sans-serif" font-size="13" lengthAdjust="spacing" textLength="69" x="1212" y="323.429">env&#237;a datos</text></g><!--link NAVEGADOR\n(LOCAL) to API REST--><g id="link_NAVEGADOR\n(LOCAL)_API REST"><path d="M544.03,276.822 C555.1,295.922 571.05,316.672 592,327.532 C622.98,343.592 1189.94,317.812 1220,335.532 C1261.61,360.062 1281.5264,409.7401 1291.0564,442.5501 " fill="none" id="NAVEGADOR\n(LOCAL)-to-API REST" style="stroke:#85A6FF;stroke-width:0.9;"/><polygon fill="#85A6FF" points="1292.73,448.312,1294.0609,438.5535,1291.3353,443.5104,1286.3784,440.7849,1292.73,448.312" style="stroke:#85A6FF;stroke-width:0.9;"/><text fill="#FFFFFF" font-family="sans-serif" font-size="13" lengthAdjust="spacing" textLength="98" x="593" y="323.429">solicitudes HTTP</text></g><!--link NAVEGADOR\n(LOCAL) to MongoDB\n(Local)--><g id="link_NAVEGADOR\n(LOCAL)_MongoDB\n(Local)"><path d="M522.72,276.612 C519.6,381.202 528.07,654.792 692,766.032 C757.68,810.602 977.1018,844.4156 1092.6018,859.6856 " fill="none" id="NAVEGADOR\n(LOCAL)-to-MongoDB\n(Local)" style="stroke:#85A6FF;stroke-width:0.9;"/><polygon fill="#85A6FF" points="1098.55,860.472,1090.1519,855.3269,1093.5931,859.8166,1089.1034,863.2579,1098.55,860.472" style="stroke:#85A6FF;stroke-width:0.9;"/><text fill="#FFFFFF" font-family="sans-serif" font-size="13" lengthAdjust="spacing" textLength="132" x="557" y="562.429">(solo lecturas si aplica)</text></g><!--link NAVEGADOR\n(INTERNET) to Amazon Amplify--><g id="link_NAVEGADOR\n(INTERNET)_Amazon Amplify"><path d="M147.15,276.882 C184.23,322.052 235,397.812 235,474.032 C235,474.032 235,474.032 235,871.032 C235,930.112 291.63,923.342 348,941.032 C458.67,975.752 1222.2622,999.3413 1521.9522,1007.3713 " fill="none" id="NAVEGADOR\n(INTERNET)-to-Amazon Amplify" style="stroke:#85A6FF;stroke-width:0.9;"/><polygon fill="#85A6FF" points="1527.95,1007.532,1519.0604,1003.2924,1522.9518,1007.3981,1518.8461,1011.2895,1527.95,1007.532" style="stroke:#85A6FF;stroke-width:0.9;"/></g><!--link NAVEGADOR\n(TRY ALL) to Amazon Amplify--><g id="link_NAVEGADOR\n(TRY ALL)_Amazon Amplify"><path d="M333.18,276.622 C350.03,323.752 374,403.222 374,474.032 C374,474.032 374,474.032 374,871.032 C374,986.432 1205.3504,1006.337 1521.8104,1009.767 " fill="none" id="NAVEGADOR\n(TRY ALL)-to-Amazon Amplify" style="stroke:#85A6FF;stroke-width:0.9;"/><polygon fill="#85A6FF" points="1527.81,1009.832,1518.8539,1005.7347,1522.8103,1009.7778,1518.7672,1013.7342,1527.81,1009.832" style="stroke:#85A6FF;stroke-width:0.9;"/></g><!--link API REST to Amazon API Gateway--><g id="link_API REST_Amazon API Gateway"><path d="M1360.52,495.482 C1397.56,508.202 1445.12,526.372 1485,547.532 C1542,577.772 1597.4268,618.2346 1635.1268,647.6046 " fill="none" id="API REST-to-Amazon API Gateway" style="stroke:#85A6FF;stroke-width:0.9;"/><polygon fill="#85A6FF" points="1639.86,651.292,1635.2184,642.6054,1635.9157,648.2192,1630.3019,648.9164,1639.86,651.292" style="stroke:#85A6FF;stroke-width:0.9;"/><text fill="#FFFFFF" font-family="sans-serif" font-size="13" lengthAdjust="spacing" textLength="140" x="1513" y="562.429">sincronizaci&#243;n eventual</text></g><!--SRC=[ZLNTRfim5BxdASxOHTkBR9EcRbCLLI90kqWfYH8sRT9k7EEcNesDRA1BfpxC7c1NVOIys8uX9PIGQZSeWU_yVD_vVFoAIogAX879ruAzJNaY-Uec7z3rakatMP4AntcLi6ik6Sn3F_QYoqa8L11Z77FBPKOqIK4pcXEv4Wn-Em0ZGczNMXKoyPLGUZYa9CtK-Jcy3aulJiFtVH1PB5c5-11w5vzw4QHaAv8eRM4NNl3HUsTXIYTCLn0O2Onn7bfzKOM59PFvmhBRjTc283TIY3nclt9Fy9LC4GqK7qmxpj5WC03VkvfD0Nyv6UOdAmQkRmcvi6DcQKk5Che1DvaoFEUbWZ1PiH_oU4vCXchgDSpuYLjXOTSQk0icZTBCs8G9Apb59ReOdsHveGa495V6xNwzsZmcXL3WgxIGd1BADu_oMRegebLfC3Zl9eKpoBGg6OEIQ4wMWfawgWEhGWzKF8DS4sbIdZD8B1mpF3YDE0kcIuuZX8cYHA0qmK-SX-eJnSwVoQID6GwlSMBiJkdRVO6kL8vvnvw5UUFzxzviZ0PUnEvMYkP_pMU_N0tRfJq0Gyf4Rlu8RhY1DIh84aufnweDTnI2B8bXDXl612CChmIeYlJbh2NkWcqfIfbHG1fnkmts1aaY-Fqs1cwuoJUFcbECVzXQFFeo2fyxFCBpQANSdikTlxsKt2i9Nfe9VhrszzwZh9SaPtTa_rkWQ66FLp2gXj0NKfFemKFVssVefgE6bFSrlFI2wRp3x6cFLFHQIyLoR1cc2RTQJdrlKath060SnU4y2kENCF7yEtWJc-QfGtyQXT_6-5X06CNpq3wdysYwg3fsZg2xJ808MDPs0M7dw_p7lgb5Qkn-1aoMcxzF5i8glk1stzKPqLkT2Zr2xESqId3ASxn937oEuzaBONqMFSPu1GBtCouQ0uO3mMbISjBkpteHZaazvnF0N2thE0VcqU-H_i7qOx63KLiHl4Qgtb37gYMdkqlwV8qAuKshbSI3MErAO2MIAb3WVm00]--></g></svg>