<?xml version="1.0" encoding="us-ascii" standalone="no"?><svg xmlns="http://www.w3.org/2000/svg" xmlns:xlink="http://www.w3.org/1999/xlink" contentStyleType="text/css" height="1031px" preserveAspectRatio="none" style="width:1175px;height:1031px;background:#1A1D1F;" version="1.1" viewBox="0 0 1175 1031" width="1175px" zoomAndPan="magnify"><defs/><g><rect fill="#1A1D1F" height="1031" style="stroke:none;stroke-width:1.0;" width="1175" x="0" y="0"/><rect fill="none" height="45.412" id="_title" style="stroke:#5BA7C7;stroke-width:1.0;" width="380" x="390.5" y="10"/><text fill="#FF9E6B" font-family="sans-serif" font-size="26" font-weight="bold" lengthAdjust="spacing" textLength="370" x="395.5" y="42.794">Sistema de Riego Inteligente</text><!--cluster Servidor Central--><g id="cluster_Servidor Central"><polygon fill="#2A2E32" points="16,400.912,26,390.912,663,390.912,663,850.132,653,860.132,16,860.132,16,400.912" style="stroke:#C77B5B;stroke-width:1.0;"/><line style="stroke:#C77B5B;stroke-width:1.0;" x1="653" x2="663" y1="400.912" y2="390.912"/><line style="stroke:#C77B5B;stroke-width:1.0;" x1="16" x2="653" y1="400.912" y2="400.912"/><line style="stroke:#C77B5B;stroke-width:1.0;" x1="653" x2="653" y1="400.912" y2="860.132"/><text fill="#FF9E6B" font-family="sans-serif" font-size="26" font-weight="bold" lengthAdjust="spacing" textLength="211" x="230" y="431.7061">Servidor Central</text></g><!--cluster Backend API Gateway--><g id="cluster_Backend API Gateway"><polygon fill="#2A2E32" points="48,475.912,58,465.912,631,465.912,631,657.632,621,667.632,48,667.632,48,475.912" style="stroke:#C77B5B;stroke-width:1.0;"/><line style="stroke:#C77B5B;stroke-width:1.0;" x1="621" x2="631" y1="475.912" y2="465.912"/><line style="stroke:#C77B5B;stroke-width:1.0;" x1="48" x2="621" y1="475.912" y2="475.912"/><line style="stroke:#C77B5B;stroke-width:1.0;" x1="621" x2="621" y1="475.912" y2="667.632"/><text fill="#FF9E6B" font-family="sans-serif" font-size="26" font-weight="bold" lengthAdjust="spacing" textLength="282" x="194.5" y="506.7061">Backend API Gateway</text></g><!--cluster Internet--><g id="cluster_Internet"><path d="M224.0879,227.9243 C226.0148,222.4129 231.1368,220.4473 235.2994,225.5663 C238.7962,219.2803 243.7739,220.2225 247.7324,225.0498 C250.1124,219.074 254.419,219.4067 258.4524,223.2436 C261.8182,217.3315 266.585,216.7268 271.0939,221.9452 C273.3502,216.8279 278.3687,216.3002 281.8251,220.5738 C285.0232,215.0386 289.168,214.1725 293.9262,218.697 C298.3978,214.9125 302.867,215.5024 304.7909,221.5206 C309.0266,216.0736 313.2433,217.3965 315.8168,223.156 C319.6208,217.9052 324.9096,218.1353 328.3592,223.5719 C331.9134,219.9224 336.5161,220.6114 338.5515,225.4052 C342.5773,219.4178 347.7216,220.686 350.994,226.2189 C360.2002,220.6179 365.8429,223.9308 368,233.912 C368.5197,233.6366 368.8306,233.952 368.8586,234.4546 C374.6514,237.2025 375.452,240.7695 370.9544,245.4744 C377.0406,247.4976 378.2381,253.1263 373.6778,257.5505 C379.8489,260.1451 380.5877,265.0423 375.3864,269.2918 C381.1183,271.4101 380.5961,276.2423 376.749,279.6239 C380.5035,282.831 380.9406,287.9004 375.3028,289.7685 C380.7474,294.8201 380.1928,298.6869 373.6021,302.0755 C378.6429,307.0056 376.9158,311.7046 370.6208,313.7366 C375.5485,323.7425 371.8517,329.2913 361,329.912 C362.0323,329.8538 362.3893,330.4844 362.111,331.4028 C359.0686,336.1688 354.5179,335.532 351.6394,331.214 C349.1108,337.9116 343.926,337.6932 339.8804,332.7458 C335.7394,338.0685 330.896,338.089 327.7082,331.7508 C324.8625,338.0438 319.5734,339.1791 315.455,333.0012 C311.416,338.0739 307.9262,337.397 304.5338,332.3064 C302.0949,338.8589 297.7299,339.8488 293.0412,334.4743 C288.5719,340.3286 284.2628,339.6281 281.239,333.097 C278.3455,337.745 273.4533,338.1727 270.6462,333.0038 C267.1783,338.5966 262.4393,338.8978 259.0183,332.9566 C254.0736,338.2311 249.893,337.586 246.7386,331.089 C243.8465,336.1492 238.7455,336.3989 235.989,330.9504 C226.0983,336.46 218.3019,336.2732 216,322.912 C216.249,322.5811 216.5095,322.6626 216.6732,322.9982 C211.5145,320.4342 209.4923,316.6766 214.6003,312.1507 C208.2202,310.2306 208.0716,305.1246 212.6159,301.2211 C207.5846,299.7403 206.1916,294.8859 210.2546,291.2511 C204.3973,288.5114 204.6229,284.9419 208.2932,280.4689 C203.0933,276.3383 204.9614,271.1369 210.7647,269.4813 C204.9716,264.2758 206.8441,258.7793 214.0452,256.9849 C210.1102,252.6275 210.1765,248.5364 215.9732,245.8665 C210.2156,238.0174 213.2265,229.0035 223,226.912 C223.8176,226.751 224.2466,227.0359 224.0879,227.9243 " fill="#2A2E32" style="stroke:#C77B5B;stroke-width:1.0;"/><text fill="#FF9E6B" font-family="sans-serif" font-size="26" font-weight="bold" lengthAdjust="spacing" textLength="108" x="238" y="259.7061">Internet</text></g><!--cluster Dispositivos IoT--><g id="cluster_Dispositivos IoT"><polygon fill="#2A2E32" points="687,738.632,697,728.632,1045,728.632,1045,1004.632,1035,1014.632,687,1014.632,687,738.632" style="stroke:#C77B5B;stroke-width:1.0;"/><line style="stroke:#C77B5B;stroke-width:1.0;" x1="1035" x2="1045" y1="738.632" y2="728.632"/><line style="stroke:#C77B5B;stroke-width:1.0;" x1="687" x2="1035" y1="738.632" y2="738.632"/><line style="stroke:#C77B5B;stroke-width:1.0;" x1="1035" x2="1035" y1="738.632" y2="1014.632"/><text fill="#FF9E6B" font-family="sans-serif" font-size="26" font-weight="bold" lengthAdjust="spacing" textLength="204" x="760" y="769.4261">Dispositivos IoT</text></g><!--entity BD--><g id="elem_BD"><path d="M266.5,806.132 C266.5,796.132 324,796.132 324,796.132 C324,796.132 381.5,796.132 381.5,806.132 L381.5,834.1999 C381.5,844.1999 324,844.1999 324,844.1999 C324,844.1999 266.5,844.1999 266.5,834.1999 L266.5,806.132 " fill="#2A2E32" style="stroke:#5BA7C7;stroke-width:0.5;"/><path d="M266.5,806.132 C266.5,816.132 324,816.132 324,816.132 C324,816.132 381.5,816.132 381.5,806.132 " fill="none" style="stroke:#5BA7C7;stroke-width:0.5;"/><text fill="#F0F4F8" font-family="sans-serif" font-size="14" lengthAdjust="spacing" textLength="95" x="276.5" y="835.098">Base de Datos</text></g><!--entity Microservicios Backend--><g id="elem_Microservicios Backend"><rect fill="#2A2E32" height="65.412" rx="3" ry="3" style="stroke:#5BA7C7;stroke-width:0.5;" width="344" x="263" y="578.632"/><rect fill="#2A2E32" height="10" style="stroke:#5BA7C7;stroke-width:0.5;" width="15" x="587" y="583.632"/><rect fill="#2A2E32" height="2" style="stroke:#5BA7C7;stroke-width:0.5;" width="4" x="585" y="585.632"/><rect fill="#2A2E32" height="2" style="stroke:#5BA7C7;stroke-width:0.5;" width="4" x="585" y="589.632"/><text fill="#FF9E6B" font-family="sans-serif" font-size="26" font-weight="bold" lengthAdjust="spacing" textLength="304" x="278" y="626.4261">Microservicios Backend</text></g><!--entity Motor IA--><g id="elem_Motor IA"><rect fill="#2A2E32" height="65.412" rx="3" ry="3" style="stroke:#5BA7C7;stroke-width:0.5;" width="155" x="72.5" y="578.632"/><rect fill="#2A2E32" height="10" style="stroke:#5BA7C7;stroke-width:0.5;" width="15" x="207.5" y="583.632"/><rect fill="#2A2E32" height="2" style="stroke:#5BA7C7;stroke-width:0.5;" width="4" x="205.5" y="585.632"/><rect fill="#2A2E32" height="2" style="stroke:#5BA7C7;stroke-width:0.5;" width="4" x="205.5" y="589.632"/><text fill="#FF9E6B" font-family="sans-serif" font-size="26" font-weight="bold" lengthAdjust="spacing" textLength="115" x="87.5" y="626.4261">Motor IA</text></g><!--entity FE--><g id="elem_FE"><polygon fill="#2A2E32" points="224.5,282.912,234.5,272.912,359.5,272.912,359.5,311.9799,349.5,321.9799,224.5,321.9799,224.5,282.912" style="stroke:#5BA7C7;stroke-width:0.5;"/><line style="stroke:#5BA7C7;stroke-width:0.5;" x1="349.5" x2="359.5" y1="282.912" y2="272.912"/><line style="stroke:#5BA7C7;stroke-width:0.5;" x1="224.5" x2="349.5" y1="282.912" y2="282.912"/><line style="stroke:#5BA7C7;stroke-width:0.5;" x1="349.5" x2="349.5" y1="282.912" y2="321.9799"/><text fill="#F0F4F8" font-family="sans-serif" font-size="14" lengthAdjust="spacing" textLength="95" x="239.5" y="307.878">Frontend Web</text></g><!--entity Sensores de Humedad--><g id="elem_Sensores de Humedad"><rect fill="#2A2E32" height="65.412" rx="3" ry="3" style="stroke:#5BA7C7;stroke-width:0.5;" width="326" x="703" y="933.632"/><rect fill="#2A2E32" height="10" style="stroke:#5BA7C7;stroke-width:0.5;" width="15" x="1009" y="938.632"/><rect fill="#2A2E32" height="2" style="stroke:#5BA7C7;stroke-width:0.5;" width="4" x="1007" y="940.632"/><rect fill="#2A2E32" height="2" style="stroke:#5BA7C7;stroke-width:0.5;" width="4" x="1007" y="944.632"/><text fill="#FF9E6B" font-family="sans-serif" font-size="26" font-weight="bold" lengthAdjust="spacing" textLength="286" x="718" y="981.4261">Sensores de Humedad</text></g><!--entity Actuadores de Riego--><g id="elem_Actuadores de Riego"><rect fill="#2A2E32" height="65.412" rx="3" ry="3" style="stroke:#5BA7C7;stroke-width:0.5;" width="304" x="703" y="787.632"/><rect fill="#2A2E32" height="10" style="stroke:#5BA7C7;stroke-width:0.5;" width="15" x="987" y="792.632"/><rect fill="#2A2E32" height="2" style="stroke:#5BA7C7;stroke-width:0.5;" width="4" x="985" y="794.632"/><rect fill="#2A2E32" height="2" style="stroke:#5BA7C7;stroke-width:0.5;" width="4" x="985" y="798.632"/><text fill="#FF9E6B" font-family="sans-serif" font-size="26" font-weight="bold" lengthAdjust="spacing" textLength="264" x="718" y="835.4261">Actuadores de Riego</text></g><!--entity Admin--><g id="elem_Admin"><ellipse cx="228" cy="88.412" fill="#2A2E32" rx="16" ry="16" style="stroke:#5BA7C7;stroke-width:0.5;"/><path d="M228,108.412 C232,108.412 235,108.412 239,104.412 C247,104.412 255,112.412 255,120.412 L255,124.412 C255,128.412 251,132.412 247,132.412 L209,132.412 C205,132.412 201,128.412 201,124.412 L201,120.412 C201,112.412 209,104.412 217,104.412 C221,108.412 224,108.412 228,108.412 " fill="#2A2E32" style="stroke:#5BA7C7;stroke-width:0.5;"/><text fill="#F0F4F8" font-family="sans-serif" font-size="14" lengthAdjust="spacing" textLength="97" x="179.5" y="147.878">Administrador</text></g><!--entity User--><g id="elem_User"><ellipse cx="356" cy="88.412" fill="#2A2E32" rx="16" ry="16" style="stroke:#5BA7C7;stroke-width:0.5;"/><path d="M356,108.412 C360,108.412 363,108.412 367,104.412 C375,104.412 383,112.412 383,120.412 L383,124.412 C383,128.412 379,132.412 375,132.412 L337,132.412 C333,132.412 329,128.412 329,124.412 L329,120.412 C329,112.412 337,104.412 345,104.412 C349,108.412 352,108.412 356,108.412 " fill="#2A2E32" style="stroke:#5BA7C7;stroke-width:0.5;"/><text fill="#F0F4F8" font-family="sans-serif" font-size="14" lengthAdjust="spacing" textLength="88" x="312" y="147.878">Usuario Final</text></g><!--link Admin to FE--><g id="link_Admin_FE"><path d="M241.73,152.282 C254.51,188.922 273.14,242.342 283.77,272.802 " fill="none" id="Admin-FE" style="stroke:#8EC9E0;stroke-width:0.6;"/><text fill="#FFE8D9" font-family="sans-serif" font-size="14" lengthAdjust="spacing" textLength="42" x="259" y="197.878">HTTPS</text></g><!--link User to FE--><g id="link_User_FE"><path d="M342.27,152.282 C329.49,188.922 310.86,242.342 300.23,272.802 " fill="none" id="User-FE" style="stroke:#8EC9E0;stroke-width:0.6;"/><text fill="#FFE8D9" font-family="sans-serif" font-size="14" lengthAdjust="spacing" textLength="42" x="332" y="197.878">HTTPS</text></g><!--link FE to Backend API Gateway--><g id="link_FE_Backend API Gateway"><path d="M292,322.142 C292,349.932 292,397.3945 292,438.432 C292,443.5617 292,448.591 292,453.469 C292,455.9079 292,458.309 292,460.666 C292,461.8444 292,463.0118 292,464.1674 C292,464.7452 292,459.32 292,459.8917 " fill="none" id="FE-to-Backend API Gateway" style="stroke:#8EC9E0;stroke-width:0.6;"/><polygon fill="#8EC9E0" points="292,465.8917,296,456.8917,292,460.8917,288,456.8917,292,465.8917" style="stroke:#8EC9E0;stroke-width:0.6;"/><text fill="#FFE8D9" font-family="sans-serif" font-size="14" lengthAdjust="spacing" textLength="105" x="293" y="369.878">Peticiones REST</text></g><!--link Backend API Gateway to Microservicios Backend--><g id="link_Backend API Gateway_Microservicios Backend"><path d="M292.1,517.702 C294.71,519.382 340.8519,549.2336 381.2219,575.3436 " fill="none" id="Backend API Gateway-to-Microservicios Backend" style="stroke:#8EC9E0;stroke-width:0.6;"/><polygon fill="#8EC9E0" points="386.26,578.602,380.8752,570.3556,382.0616,575.8866,376.5305,577.0731,386.26,578.602" style="stroke:#8EC9E0;stroke-width:0.6;"/></g><!--link Backend API Gateway to Motor IA--><g id="link_Backend API Gateway_Motor IA"><path d="M291.9,517.702 C289.31,519.382 243.5177,549.2176 203.4277,575.3276 " fill="none" id="Backend API Gateway-to-Motor IA" style="stroke:#8EC9E0;stroke-width:0.6;"/><polygon fill="#8EC9E0" points="198.4,578.602,208.1245,577.0421,202.5898,575.8733,203.7586,570.3385,198.4,578.602" style="stroke:#8EC9E0;stroke-width:0.6;"/></g><!--link Microservicios Backend to BD--><g id="link_Microservicios Backend_BD"><path d="M417.9,644.022 C395.4,685.982 359.2148,753.454 339.3048,790.594 " fill="none" id="Microservicios Backend-to-BD" style="stroke:#8EC9E0;stroke-width:0.6;"/><polygon fill="#8EC9E0" points="336.47,795.882,344.2476,789.8398,338.8324,791.4753,337.1969,786.06,336.47,795.882" style="stroke:#8EC9E0;stroke-width:0.6;"/><text fill="#FFE8D9" font-family="sans-serif" font-size="14" lengthAdjust="spacing" textLength="96" x="390" y="707.598">Consultas SQL</text></g><!--link Motor IA to BD--><g id="link_Motor IA_BD"><path d="M176.81,644.022 C212.08,685.982 269.3799,754.1486 300.5899,791.2886 " fill="none" id="Motor IA-to-BD" style="stroke:#8EC9E0;stroke-width:0.6;"/><polygon fill="#8EC9E0" points="304.45,795.882,301.7222,786.4185,301.2333,792.0541,295.5976,791.5652,304.45,795.882" style="stroke:#8EC9E0;stroke-width:0.6;"/><text fill="#FFE8D9" font-family="sans-serif" font-size="14" lengthAdjust="spacing" textLength="113" x="232" y="707.598">Lectura de Datos</text></g><!--link Microservicios Backend to Sensores de Humedad--><g id="link_Microservicios Backend_Sensores de Humedad"><path d="M607.25,620.022 C761.96,631.152 972.59,657.712 1025,720.632 C1077.09,783.172 1069.84,840.882 1018,903.632 C1007.94,915.812 1000.3164,922.6551 986.3764,930.5151 " fill="none" id="Microservicios Backend-to-Sensores de Humedad" style="stroke:#8EC9E0;stroke-width:0.6;"/><polygon fill="#8EC9E0" points="981.15,933.462,990.9543,932.526,985.5054,931.0063,987.0251,925.5574,981.15,933.462" style="stroke:#8EC9E0;stroke-width:0.6;"/><text fill="#FFE8D9" font-family="sans-serif" font-size="14" lengthAdjust="spacing" textLength="106" x="1061" y="825.598">Solicita lecturas</text></g><!--link Microservicios Backend to Actuadores de Riego--><g id="link_Microservicios Backend_Actuadores de Riego"><path d="M527.86,643.642 C564.36,657.052 606.25,673.732 643,691.632 C701.88,720.312 760.814,756.795 802.914,784.245 " fill="none" id="Microservicios Backend-to-Actuadores de Riego" style="stroke:#8EC9E0;stroke-width:0.6;"/><polygon fill="#8EC9E0" points="807.94,787.522,802.5857,779.2558,803.7517,784.7911,798.2163,785.9571,807.94,787.522" style="stroke:#8EC9E0;stroke-width:0.6;"/><text fill="#FFE8D9" font-family="sans-serif" font-size="14" lengthAdjust="spacing" textLength="103" x="679" y="707.598">Orden de riego</text></g><!--link Actuadores de Riego to Sensores de Humedad--><g id="link_Actuadores de Riego_Sensores de Humedad"><path d="M857.41,852.732 C859.25,876.742 861.3036,903.6294 863.1336,927.6194 " fill="none" id="Actuadores de Riego-to-Sensores de Humedad" style="stroke:#8EC9E0;stroke-width:0.6;"/><polygon fill="#8EC9E0" points="863.59,933.602,866.8939,924.3239,863.2097,928.6165,858.917,924.9323,863.59,933.602" style="stroke:#8EC9E0;stroke-width:0.6;"/><text fill="#FFE8D9" font-family="sans-serif" font-size="14" lengthAdjust="spacing" textLength="147" x="862" y="898.598">Feedback instant&#225;neo</text></g><!--SRC=[XL7BRjj03BppArXTSb9xpo604yU9WGHn8WSz63xGMY9TTBqCTgayaO_fj_J7ofNoGc2x1wsauSnmblpcOniwnvZrCV0FvPIe5LMgVqdoJnA_ttRh003gDJ0sFYkl2KrmvVb6S1gLWxzXUm54CRngEDrv9mcF34qKAdm6nA5sIErlZWv7iocUaF8zFGvbnCMvRvFa8cwzP7obBl6rAcgMqz7IVb_iSQIqejnxscdcOrB95P99n_02q0Rf75ObOOgidsDCaXXgENxogbTCZejYA8vzlfNirTzPYgdC1-6YuPWbSIwjJhirEt8bosBKQaVkhT9FPLdCg2s1gv5R-sXJIuNJz-gHj_9rxYXvmOcFPL9MlhOH0EpXaKH-y7Paw1LOrnOJz_5qFfyrK6XV8B3lkZxOCkLzdB6MqPeZNXqtSzZCAmxRTh5JyhwWhPiilCEn9R6xvIwetRQvF8CFwGVZZ6siYTxt2hjTDsx7R1e9nbR2CFZb_zXiMgRPN2J7iI2f89Pb8szNa0cpMrahz34hHVtx9xB0Fm00]--></g></svg>